<svg xmlns="http://www.w3.org/2000/svg" xmlns:xlink="http://www.w3.org/1999/xlink" width="500" zoomAndPan="magnify" viewBox="0 0 375 374.999991" height="500" preserveAspectRatio="xMidYMid meet" version="1.0"><defs><clipPath id="7c96b44aa7"><path d="M 8.90625 4 L 365.90625 4 L 365.90625 375 L 8.90625 375 Z M 8.90625 4 " clip-rule="nonzero"/></clipPath></defs><g clip-path="url(#7c96b44aa7)"><path fill="#ffffff" d="M 311.128906 374.9375 L 256.167969 374.9375 C 233.445312 374.9375 214.96875 356.460938 214.96875 333.738281 L 214.96875 306.257812 C 214.96875 298.683594 208.800781 292.542969 201.253906 292.542969 L 173.746094 292.542969 C 166.171875 292.542969 160.03125 298.710938 160.03125 306.257812 L 160.03125 333.738281 C 160.03125 356.460938 141.554688 374.9375 118.832031 374.9375 L 63.84375 374.9375 C 33.550781 374.9375 8.90625 350.292969 8.90625 320 L 8.90625 173.265625 C 8.90625 157.898438 15.394531 143.144531 26.71875 132.785156 L 150.359375 19.453125 C 171.527344 0.0625 203.472656 0.0625 224.640625 19.453125 L 348.28125 132.785156 C 359.605469 143.167969 366.09375 157.921875 366.09375 173.265625 L 366.09375 319.972656 C 366.070312 350.292969 341.425781 374.9375 311.128906 374.9375 Z M 173.746094 265.058594 L 201.253906 265.058594 C 223.972656 265.058594 242.449219 283.539062 242.449219 306.257812 L 242.449219 333.738281 C 242.449219 341.3125 248.617188 347.457031 256.167969 347.457031 L 311.128906 347.457031 C 326.277344 347.457031 338.613281 335.144531 338.613281 319.972656 L 338.613281 173.265625 C 338.613281 165.59375 335.355469 158.21875 329.707031 153.035156 L 206.0625 39.707031 C 195.480469 29.984375 179.496094 29.984375 168.910156 39.707031 L 45.292969 153.035156 C 39.644531 158.21875 36.386719 165.59375 36.386719 173.265625 L 36.386719 319.972656 C 36.386719 335.121094 48.699219 347.457031 63.871094 347.457031 L 118.832031 347.457031 C 126.40625 347.457031 132.550781 341.289062 132.550781 333.738281 L 132.550781 306.257812 C 132.550781 283.539062 151.027344 265.058594 173.746094 265.058594 Z M 173.746094 265.058594 " fill-opacity="1" fill-rule="nonzero"/><path fill="#ffffff" d="M 311.128906 374.9375 L 256.167969 374.9375 C 233.445312 374.9375 214.96875 356.460938 214.96875 333.738281 L 214.96875 306.257812 C 214.96875 298.683594 208.800781 292.542969 201.253906 292.542969 L 173.746094 292.542969 C 166.171875 292.542969 160.03125 298.710938 160.03125 306.257812 L 160.03125 333.738281 C 160.03125 356.460938 141.554688 374.9375 118.832031 374.9375 L 63.84375 374.9375 C 33.550781 374.9375 8.90625 350.292969 8.90625 320 L 8.90625 173.265625 C 8.90625 157.898438 15.394531 143.144531 26.71875 132.785156 L 150.359375 19.453125 C 171.527344 0.0625 203.472656 0.0625 224.640625 19.453125 L 348.28125 132.785156 C 359.605469 143.167969 366.09375 157.921875 366.09375 173.265625 L 366.09375 319.972656 C 366.070312 350.292969 341.425781 374.9375 311.128906 374.9375 Z M 173.746094 265.058594 L 201.253906 265.058594 C 223.972656 265.058594 242.449219 283.539062 242.449219 306.257812 L 242.449219 333.738281 C 242.449219 341.3125 248.617188 347.457031 256.167969 347.457031 L 311.128906 347.457031 C 326.277344 347.457031 338.613281 335.144531 338.613281 319.972656 L 338.613281 173.265625 C 338.613281 165.59375 335.355469 158.21875 329.707031 153.035156 L 206.0625 39.707031 C 195.480469 29.984375 179.496094 29.984375 168.910156 39.707031 L 45.292969 153.035156 C 39.644531 158.21875 36.386719 165.59375 36.386719 173.265625 L 36.386719 319.972656 C 36.386719 335.121094 48.699219 347.457031 63.871094 347.457031 L 118.832031 347.457031 C 126.40625 347.457031 132.550781 341.289062 132.550781 333.738281 L 132.550781 306.257812 C 132.550781 283.539062 151.027344 265.058594 173.746094 265.058594 Z M 173.746094 265.058594 " fill-opacity="1" fill-rule="nonzero"/></g></svg>