<svg xmlns="http://www.w3.org/2000/svg" xmlns:xlink="http://www.w3.org/1999/xlink" width="500" zoomAndPan="magnify" viewBox="0 0 375 374.999991" height="500" preserveAspectRatio="xMidYMid meet" version="1.0"><path fill="#ffffff" d="M 298.898438 40.800781 C 291.023438 40.785156 283.339844 41.984375 275.847656 44.40625 C 275.183594 43.085938 274.484375 41.785156 273.746094 40.503906 C 273.007812 39.222656 272.230469 37.964844 271.417969 36.730469 C 270.605469 35.492188 269.753906 34.285156 268.871094 33.097656 C 267.984375 31.914062 267.066406 30.757812 266.113281 29.625 C 265.160156 28.496094 264.175781 27.394531 263.15625 26.324219 C 262.136719 25.25 261.089844 24.210938 260.007812 23.199219 C 258.929688 22.191406 257.820312 21.210938 256.679688 20.269531 C 255.542969 19.324219 254.378906 18.414062 253.1875 17.539062 C 251.996094 16.664062 250.78125 15.824219 249.539062 15.019531 C 248.296875 14.214844 247.035156 13.449219 245.746094 12.71875 C 244.460938 11.992188 243.152344 11.300781 241.828125 10.648438 C 240.5 9.996094 239.152344 9.386719 237.789062 8.8125 C 236.425781 8.242188 235.046875 7.710938 233.652344 7.21875 C 232.257812 6.730469 230.847656 6.28125 229.429688 5.871094 C 228.007812 5.464844 226.574219 5.101562 225.132812 4.777344 C 223.6875 4.453125 222.238281 4.175781 220.777344 3.9375 C 219.316406 3.703125 217.851562 3.507812 216.382812 3.359375 C 214.910156 3.207031 213.4375 3.101562 211.960938 3.039062 C 210.480469 2.976562 209.003906 2.957031 207.523438 2.980469 C 206.046875 3.003906 204.570312 3.074219 203.097656 3.183594 C 201.621094 3.296875 200.152344 3.453125 198.6875 3.648438 C 197.222656 3.847656 195.761719 4.089844 194.3125 4.375 C 192.859375 4.660156 191.417969 4.988281 189.988281 5.359375 C 188.558594 5.726562 187.136719 6.140625 185.730469 6.59375 C 184.324219 7.046875 182.929688 7.542969 181.550781 8.078125 C 180.175781 8.617188 178.8125 9.191406 177.46875 9.808594 C 176.125 10.425781 174.800781 11.082031 173.496094 11.777344 C 172.191406 12.472656 170.90625 13.207031 169.644531 13.976562 C 168.382812 14.746094 167.144531 15.554688 165.933594 16.398438 C 164.71875 17.242188 163.53125 18.125 162.367188 19.039062 C 161.207031 19.953125 160.074219 20.898438 158.964844 21.882812 C 157.859375 22.863281 156.785156 23.875 155.738281 24.921875 L 29.511719 151.109375 C 28.664062 151.980469 27.832031 152.871094 27.027344 153.785156 C 26.21875 154.695312 25.433594 155.625 24.671875 156.578125 C 23.910156 157.527344 23.171875 158.496094 22.457031 159.480469 C 21.742188 160.464844 21.054688 161.46875 20.386719 162.488281 C 19.722656 163.507812 19.082031 164.542969 18.464844 165.59375 C 17.851562 166.644531 17.261719 167.710938 16.699219 168.789062 C 16.136719 169.871094 15.597656 170.960938 15.089844 172.066406 C 14.578125 173.171875 14.09375 174.289062 13.640625 175.417969 C 13.183594 176.550781 12.753906 177.6875 12.355469 178.839844 C 11.957031 179.988281 11.582031 181.148438 11.238281 182.316406 C 10.894531 183.484375 10.582031 184.660156 10.292969 185.84375 C 10.007812 187.027344 9.75 188.21875 9.523438 189.414062 C 9.292969 190.609375 9.09375 191.808594 8.925781 193.015625 C 8.753906 194.222656 8.613281 195.429688 8.503906 196.644531 C 8.390625 197.855469 8.308594 199.070312 8.257812 200.289062 C 8.207031 201.503906 8.183594 202.722656 8.191406 203.9375 C 8.199219 205.15625 8.234375 206.375 8.304688 207.589844 C 8.371094 208.804688 8.464844 210.019531 8.59375 211.230469 C 8.71875 212.441406 8.871094 213.648438 9.058594 214.851562 C 9.242188 216.054688 9.457031 217.253906 9.699219 218.445312 C 9.941406 219.640625 10.214844 220.828125 10.515625 222.007812 C 10.816406 223.1875 11.144531 224.359375 11.503906 225.523438 C 11.859375 226.6875 12.246094 227.839844 12.660156 228.984375 C 13.074219 230.132812 13.519531 231.265625 13.988281 232.390625 C 14.457031 233.511719 14.953125 234.625 15.476562 235.722656 C 16 236.824219 16.550781 237.910156 17.128906 238.980469 C 17.703125 240.054688 18.304688 241.113281 18.933594 242.15625 C 19.5625 243.199219 20.214844 244.226562 20.894531 245.238281 C 21.570312 246.25 22.273438 247.242188 23 248.21875 C 23.726562 249.195312 24.476562 250.15625 25.25 251.097656 C 26.023438 252.035156 26.820312 252.957031 27.636719 253.859375 C 28.457031 254.761719 29.296875 255.644531 30.15625 256.503906 C 31.015625 257.367188 31.898438 258.203125 32.800781 259.023438 C 33.703125 259.839844 34.625 260.636719 35.566406 261.410156 C 36.507812 262.183594 37.464844 262.933594 38.441406 263.660156 C 39.417969 264.386719 40.414062 265.085938 41.425781 265.765625 C 42.4375 266.441406 43.464844 267.097656 44.507812 267.722656 C 45.550781 268.351562 46.609375 268.953125 47.683594 269.53125 C 48.753906 270.105469 49.839844 270.65625 50.941406 271.179688 C 52.039062 271.703125 53.152344 272.199219 54.273438 272.667969 C 55.398438 273.136719 56.53125 273.582031 57.679688 273.992188 C 58.824219 274.40625 59.976562 274.792969 61.140625 275.152344 C 62.304688 275.507812 63.476562 275.839844 64.65625 276.140625 C 65.835938 276.441406 67.023438 276.710938 68.21875 276.953125 C 69.410156 277.199219 70.609375 277.410156 71.8125 277.59375 C 73.015625 277.78125 74.222656 277.933594 75.433594 278.058594 C 76.644531 278.1875 77.859375 278.28125 79.074219 278.347656 C 80.292969 278.414062 81.507812 278.453125 82.726562 278.460938 C 83.945312 278.464844 85.160156 278.445312 86.378906 278.390625 C 87.59375 278.339844 88.808594 278.257812 90.019531 278.148438 C 91.234375 278.035156 92.441406 277.894531 93.648438 277.726562 C 94.855469 277.554688 96.054688 277.355469 97.25 277.125 C 98.449219 276.898438 99.636719 276.640625 100.820312 276.351562 C 102.003906 276.066406 103.179688 275.75 104.347656 275.40625 C 105.515625 275.0625 106.675781 274.691406 107.824219 274.289062 C 108.976562 273.890625 110.113281 273.460938 111.242188 273.007812 C 112.371094 272.550781 113.492188 272.066406 114.597656 271.558594 C 115.703125 271.046875 116.792969 270.507812 117.875 269.945312 C 118.953125 269.382812 120.019531 268.792969 121.070312 268.175781 C 122.121094 267.5625 123.15625 266.921875 124.175781 266.253906 C 125.195312 265.589844 126.195312 264.898438 127.183594 264.183594 C 128.167969 263.46875 129.136719 262.730469 130.085938 261.96875 C 131.035156 261.207031 131.964844 260.421875 132.878906 259.617188 C 133.789062 258.808594 134.679688 257.980469 135.550781 257.128906 L 223.839844 168.761719 L 223.839844 294.265625 C 223.839844 295.496094 223.867188 296.722656 223.929688 297.949219 C 223.988281 299.175781 224.078125 300.402344 224.199219 301.621094 C 224.316406 302.84375 224.46875 304.0625 224.648438 305.277344 C 224.828125 306.492188 225.035156 307.703125 225.273438 308.90625 C 225.515625 310.113281 225.78125 311.3125 226.082031 312.503906 C 226.378906 313.695312 226.707031 314.878906 227.0625 316.050781 C 227.417969 317.226562 227.800781 318.394531 228.214844 319.550781 C 228.628906 320.707031 229.070312 321.851562 229.539062 322.988281 C 230.007812 324.121094 230.507812 325.246094 231.03125 326.355469 C 231.554688 327.464844 232.109375 328.5625 232.6875 329.644531 C 233.265625 330.730469 233.871094 331.796875 234.5 332.851562 C 235.132812 333.902344 235.789062 334.941406 236.46875 335.964844 C 237.152344 336.984375 237.859375 337.988281 238.589844 338.976562 C 239.320312 339.960938 240.078125 340.929688 240.855469 341.878906 C 241.632812 342.828125 242.4375 343.757812 243.261719 344.667969 C 244.085938 345.578125 244.929688 346.46875 245.800781 347.335938 C 246.667969 348.207031 247.558594 349.050781 248.464844 349.878906 C 249.375 350.703125 250.304688 351.503906 251.253906 352.285156 C 252.203125 353.0625 253.171875 353.820312 254.15625 354.550781 C 255.144531 355.28125 256.148438 355.988281 257.167969 356.671875 C 258.191406 357.355469 259.226562 358.011719 260.28125 358.644531 C 261.332031 359.273438 262.402344 359.878906 263.484375 360.460938 C 264.566406 361.039062 265.664062 361.589844 266.773438 362.117188 C 267.886719 362.640625 269.007812 363.136719 270.140625 363.609375 C 271.277344 364.078125 272.421875 364.519531 273.578125 364.933594 C 274.734375 365.347656 275.898438 365.734375 277.074219 366.089844 C 278.25 366.445312 279.433594 366.773438 280.625 367.074219 C 281.816406 367.371094 283.015625 367.640625 284.21875 367.878906 C 285.421875 368.121094 286.632812 368.328125 287.847656 368.511719 C 289.0625 368.691406 290.28125 368.839844 291.503906 368.960938 C 292.726562 369.082031 293.949219 369.171875 295.175781 369.230469 C 296.402344 369.292969 297.628906 369.324219 298.859375 369.324219 C 300.085938 369.324219 301.3125 369.292969 302.539062 369.230469 C 303.765625 369.171875 304.992188 369.082031 306.214844 368.960938 C 307.4375 368.839844 308.65625 368.691406 309.871094 368.511719 C 311.085938 368.328125 312.292969 368.121094 313.5 367.878906 C 314.703125 367.640625 315.902344 367.371094 317.09375 367.074219 C 318.285156 366.773438 319.464844 366.445312 320.640625 366.089844 C 321.816406 365.734375 322.984375 365.347656 324.140625 364.933594 C 325.296875 364.519531 326.441406 364.078125 327.574219 363.609375 C 328.710938 363.136719 329.832031 362.640625 330.941406 362.117188 C 332.050781 361.589844 333.148438 361.039062 334.230469 360.460938 C 335.316406 359.878906 336.382812 359.273438 337.4375 358.644531 C 338.488281 358.011719 339.527344 357.355469 340.546875 356.671875 C 341.570312 355.988281 342.574219 355.28125 343.558594 354.550781 C 344.546875 353.820312 345.511719 353.0625 346.460938 352.285156 C 347.410156 351.503906 348.339844 350.703125 349.25 349.878906 C 350.160156 349.050781 351.050781 348.207031 351.917969 347.335938 C 352.785156 346.46875 353.632812 345.578125 354.457031 344.667969 C 355.28125 343.757812 356.082031 342.828125 356.863281 341.878906 C 357.640625 340.929688 358.394531 339.960938 359.128906 338.976562 C 359.859375 337.988281 360.566406 336.984375 361.246094 335.964844 C 361.929688 334.941406 362.585938 333.902344 363.214844 332.851562 C 363.847656 331.796875 364.453125 330.730469 365.03125 329.644531 C 365.609375 328.5625 366.160156 327.464844 366.6875 326.355469 C 367.210938 325.246094 367.707031 324.121094 368.175781 322.988281 C 368.648438 321.851562 369.089844 320.707031 369.5 319.550781 C 369.914062 318.394531 370.300781 317.226562 370.65625 316.050781 C 371.011719 314.878906 371.339844 313.695312 371.636719 312.503906 C 371.933594 311.3125 372.203125 310.113281 372.441406 308.90625 C 372.679688 307.703125 372.890625 306.492188 373.070312 305.277344 C 373.25 304.0625 373.398438 302.84375 373.519531 301.621094 C 373.640625 300.402344 373.730469 299.175781 373.789062 297.949219 C 373.847656 296.722656 373.878906 295.496094 373.878906 294.265625 L 373.878906 115.78125 C 373.875 114.554688 373.84375 113.328125 373.78125 112.105469 C 373.722656 110.878906 373.628906 109.65625 373.507812 108.433594 C 373.386719 107.214844 373.238281 105.996094 373.054688 104.785156 C 372.875 103.570312 372.664062 102.363281 372.421875 101.160156 C 372.183594 99.957031 371.914062 98.761719 371.613281 97.570312 C 371.316406 96.378906 370.988281 95.199219 370.632812 94.023438 C 370.273438 92.851562 369.890625 91.6875 369.476562 90.53125 C 369.0625 89.378906 368.617188 88.234375 368.148438 87.101562 C 367.679688 85.96875 367.179688 84.847656 366.65625 83.738281 C 366.132812 82.628906 365.578125 81.535156 365 80.453125 C 364.421875 79.371094 363.816406 78.304688 363.1875 77.25 C 362.554688 76.199219 361.898438 75.164062 361.21875 74.144531 C 360.535156 73.125 359.828125 72.121094 359.097656 71.136719 C 358.367188 70.152344 357.613281 69.183594 356.832031 68.234375 C 356.054688 67.289062 355.253906 66.359375 354.429688 65.449219 C 353.605469 64.542969 352.761719 63.652344 351.894531 62.785156 C 351.027344 61.917969 350.136719 61.074219 349.230469 60.25 C 348.320312 59.425781 347.390625 58.625 346.441406 57.84375 C 345.496094 57.066406 344.527344 56.3125 343.542969 55.582031 C 342.558594 54.851562 341.554688 54.144531 340.535156 53.460938 C 339.515625 52.78125 338.480469 52.125 337.429688 51.492188 C 336.375 50.863281 335.308594 50.257812 334.226562 49.679688 C 333.144531 49.101562 332.050781 48.546875 330.941406 48.023438 C 329.832031 47.5 328.710938 47 327.578125 46.53125 C 326.445312 46.058594 325.300781 45.617188 324.148438 45.203125 C 322.992188 44.789062 321.828125 44.40625 320.65625 44.046875 C 319.480469 43.691406 318.300781 43.363281 317.109375 43.066406 C 315.917969 42.765625 314.722656 42.496094 313.519531 42.257812 C 312.316406 42.015625 311.109375 41.804688 309.894531 41.625 C 308.683594 41.441406 307.464844 41.292969 306.246094 41.171875 C 305.023438 41.050781 303.800781 40.957031 302.574219 40.894531 C 301.351562 40.835938 300.125 40.804688 298.898438 40.800781 Z M 166.75 35.910156 C 168.136719 34.59375 169.582031 33.347656 171.089844 32.171875 C 172.597656 30.996094 174.15625 29.894531 175.769531 28.867188 C 177.386719 27.84375 179.042969 26.898438 180.75 26.03125 C 182.453125 25.164062 184.195312 24.382812 185.976562 23.6875 C 187.757812 22.988281 189.566406 22.378906 191.40625 21.859375 C 193.246094 21.335938 195.109375 20.902344 196.988281 20.558594 C 198.871094 20.21875 200.761719 19.964844 202.667969 19.804688 C 204.574219 19.644531 206.484375 19.578125 208.394531 19.601562 C 210.308594 19.628906 212.214844 19.746094 214.113281 19.953125 C 216.015625 20.160156 217.902344 20.460938 219.773438 20.851562 C 221.644531 21.242188 223.492188 21.722656 225.320312 22.292969 C 227.144531 22.863281 228.9375 23.519531 230.699219 24.261719 C 232.460938 25.003906 234.183594 25.828125 235.867188 26.738281 C 237.550781 27.648438 239.183594 28.636719 240.769531 29.703125 C 242.355469 30.769531 243.890625 31.910156 245.367188 33.125 C 246.84375 34.339844 248.257812 35.621094 249.609375 36.972656 C 250.960938 38.324219 252.246094 39.738281 253.464844 41.214844 C 254.679688 42.691406 255.820312 44.222656 256.890625 45.808594 C 257.957031 47.394531 258.949219 49.027344 259.859375 50.707031 C 260.769531 52.390625 261.597656 54.109375 262.339844 55.871094 C 263.085938 57.632812 263.742188 59.425781 264.3125 61.25 C 264.886719 63.078125 265.367188 64.925781 265.757812 66.796875 C 266.152344 68.667969 266.453125 70.554688 266.664062 72.453125 C 266.875 74.355469 266.992188 76.261719 267.019531 78.171875 C 267.046875 80.085938 266.980469 81.992188 266.820312 83.898438 C 266.664062 85.804688 266.414062 87.699219 266.074219 89.578125 C 265.730469 91.460938 265.300781 93.324219 264.78125 95.164062 C 264.257812 97.003906 263.652344 98.8125 262.957031 100.59375 C 262.261719 102.375 261.480469 104.117188 260.617188 105.824219 C 259.753906 107.53125 258.808594 109.191406 257.785156 110.804688 C 256.757812 112.417969 255.660156 113.980469 254.484375 115.488281 C 253.308594 117 252.0625 118.445312 250.75 119.835938 L 191.046875 179.597656 L 107.066406 95.59375 Z M 124.464844 246.121094 C 123.078125 247.433594 121.628906 248.679688 120.121094 249.855469 C 118.613281 251.03125 117.050781 252.128906 115.433594 253.152344 C 113.820312 254.179688 112.160156 255.121094 110.453125 255.984375 C 108.75 256.851562 107.003906 257.628906 105.222656 258.324219 C 103.441406 259.019531 101.632812 259.628906 99.792969 260.148438 C 97.953125 260.671875 96.089844 261.101562 94.210938 261.441406 C 92.328125 261.785156 90.433594 262.03125 88.53125 262.191406 C 86.625 262.347656 84.714844 262.414062 82.804688 262.390625 C 80.890625 262.363281 78.984375 262.242188 77.085938 262.035156 C 75.183594 261.824219 73.296875 261.523438 71.425781 261.128906 C 69.554688 260.738281 67.707031 260.253906 65.882812 259.683594 C 64.058594 259.113281 62.265625 258.453125 60.503906 257.710938 C 58.742188 256.964844 57.019531 256.140625 55.339844 255.226562 C 53.65625 254.316406 52.023438 253.328125 50.4375 252.261719 C 48.851562 251.191406 47.320312 250.050781 45.84375 248.832031 C 44.371094 247.617188 42.957031 246.332031 41.605469 244.980469 C 40.253906 243.625 38.96875 242.210938 37.753906 240.734375 C 36.539062 239.257812 35.398438 237.726562 34.332031 236.140625 C 33.265625 234.554688 32.277344 232.917969 31.367188 231.238281 C 30.460938 229.554688 29.632812 227.832031 28.890625 226.070312 C 28.148438 224.308594 27.492188 222.515625 26.921875 220.6875 C 26.351562 218.863281 25.875 217.015625 25.484375 215.144531 C 25.089844 213.269531 24.792969 211.382812 24.582031 209.484375 C 24.375 207.582031 24.257812 205.675781 24.234375 203.765625 C 24.207031 201.851562 24.277344 199.945312 24.4375 198.039062 C 24.597656 196.132812 24.847656 194.238281 25.191406 192.359375 C 25.53125 190.476562 25.964844 188.617188 26.488281 186.777344 C 27.011719 184.9375 27.621094 183.128906 28.316406 181.347656 C 29.015625 179.566406 29.796875 177.824219 30.660156 176.121094 C 31.527344 174.414062 32.472656 172.753906 33.5 171.140625 C 34.523438 169.527344 35.625 167.964844 36.800781 166.460938 C 37.980469 164.953125 39.226562 163.503906 40.542969 162.117188 L 96.035156 106.625 L 180.019531 190.605469 Z M 340.753906 336.257812 C 339.71875 337.285156 338.652344 338.277344 337.546875 339.226562 C 336.445312 340.175781 335.304688 341.082031 334.136719 341.949219 C 332.964844 342.816406 331.761719 343.636719 330.53125 344.414062 C 329.300781 345.195312 328.039062 345.925781 326.753906 346.609375 C 325.46875 347.296875 324.160156 347.933594 322.828125 348.519531 C 321.496094 349.109375 320.144531 349.648438 318.769531 350.136719 C 317.398438 350.628906 316.011719 351.066406 314.605469 351.453125 C 313.203125 351.839844 311.785156 352.175781 310.355469 352.457031 C 308.929688 352.742188 307.492188 352.972656 306.042969 353.148438 C 304.597656 353.328125 303.148438 353.449219 301.695312 353.519531 C 300.238281 353.589844 298.78125 353.609375 297.328125 353.570312 C 295.871094 353.535156 294.417969 353.445312 292.96875 353.300781 C 291.519531 353.15625 290.074219 352.960938 288.640625 352.710938 C 287.207031 352.460938 285.78125 352.160156 284.367188 351.804688 C 282.957031 351.449219 281.558594 351.046875 280.175781 350.585938 C 278.792969 350.128906 277.425781 349.621094 276.082031 349.066406 C 274.734375 348.507812 273.414062 347.902344 272.113281 347.246094 C 270.808594 346.589844 269.535156 345.890625 268.285156 345.140625 C 267.035156 344.390625 265.816406 343.597656 264.625 342.757812 C 263.433594 341.921875 262.277344 341.039062 261.148438 340.113281 C 260.023438 339.191406 258.933594 338.226562 257.878906 337.222656 C 256.820312 336.21875 255.804688 335.175781 254.828125 334.097656 C 253.847656 333.019531 252.910156 331.90625 252.011719 330.757812 C 251.117188 329.609375 250.261719 328.429688 249.453125 327.21875 C 248.644531 326.007812 247.878906 324.769531 247.160156 323.503906 C 246.441406 322.234375 245.769531 320.945312 245.148438 319.628906 C 244.523438 318.3125 243.949219 316.972656 243.421875 315.613281 C 242.898438 314.253906 242.425781 312.878906 242 311.484375 C 241.574219 310.09375 241.203125 308.683594 240.882812 307.265625 C 240.5625 305.84375 240.296875 304.414062 240.078125 302.972656 C 239.863281 301.53125 239.703125 300.085938 239.59375 298.632812 C 239.484375 297.179688 239.429688 295.722656 239.429688 294.265625 L 239.429688 215.78125 L 358.289062 215.78125 L 358.289062 294.265625 C 358.300781 298.167969 357.925781 302.03125 357.171875 305.859375 C 356.414062 309.6875 355.289062 313.402344 353.796875 317.007812 C 352.300781 320.609375 350.46875 324.03125 348.296875 327.273438 C 346.125 330.511719 343.65625 333.507812 340.886719 336.257812 Z M 358.289062 200.191406 L 239.429688 200.191406 L 239.429688 153.175781 L 261.679688 130.921875 C 263.421875 129.191406 265.074219 127.375 266.636719 125.480469 C 268.199219 123.585938 269.664062 121.617188 271.03125 119.574219 C 272.398438 117.535156 273.664062 115.429688 274.824219 113.265625 C 275.984375 111.101562 277.03125 108.882812 277.972656 106.613281 C 278.914062 104.34375 279.738281 102.03125 280.449219 99.679688 C 281.160156 97.328125 281.753906 94.949219 282.230469 92.539062 C 282.707031 90.128906 283.0625 87.699219 283.296875 85.253906 C 283.535156 82.808594 283.648438 80.359375 283.640625 77.902344 C 283.640625 71.515625 282.847656 65.226562 281.261719 59.039062 C 286.972656 57.265625 292.820312 56.382812 298.800781 56.390625 C 300.746094 56.390625 302.6875 56.484375 304.625 56.671875 C 306.5625 56.863281 308.488281 57.144531 310.398438 57.523438 C 312.304688 57.902344 314.191406 58.375 316.054688 58.9375 C 317.917969 59.5 319.75 60.15625 321.550781 60.898438 C 323.347656 61.644531 325.105469 62.472656 326.824219 63.390625 C 328.542969 64.304688 330.210938 65.304688 331.828125 66.382812 C 333.449219 67.464844 335.011719 68.621094 336.515625 69.855469 C 338.023438 71.089844 339.464844 72.394531 340.84375 73.769531 C 342.21875 75.144531 343.527344 76.582031 344.761719 78.085938 C 346 79.589844 347.160156 81.152344 348.242188 82.769531 C 349.324219 84.386719 350.324219 86.054688 351.246094 87.769531 C 352.164062 89.484375 352.996094 91.242188 353.742188 93.039062 C 354.488281 94.839844 355.144531 96.667969 355.714844 98.53125 C 356.28125 100.394531 356.753906 102.277344 357.136719 104.1875 C 357.515625 106.097656 357.804688 108.019531 357.996094 109.957031 C 358.191406 111.894531 358.285156 113.835938 358.289062 115.78125 Z M 358.289062 200.191406 " fill-opacity="1" fill-rule="nonzero"/><path fill="#ffffff" d="M 298.898438 42.847656 C 291.023438 42.828125 283.339844 44.03125 275.847656 46.453125 C 275.183594 45.128906 274.484375 43.828125 273.746094 42.546875 C 273.007812 41.265625 272.230469 40.007812 271.417969 38.773438 C 270.605469 37.539062 269.753906 36.328125 268.871094 35.144531 C 267.984375 33.960938 267.066406 32.800781 266.113281 31.671875 C 265.160156 30.542969 264.175781 29.441406 263.15625 28.367188 C 262.136719 27.296875 261.089844 26.253906 260.007812 25.246094 C 258.929688 24.234375 257.820312 23.257812 256.679688 22.3125 C 255.542969 21.367188 254.378906 20.457031 253.1875 19.582031 C 251.996094 18.707031 250.78125 17.867188 249.539062 17.0625 C 248.296875 16.261719 247.035156 15.496094 245.746094 14.765625 C 244.460938 14.035156 243.152344 13.347656 241.828125 12.695312 C 240.5 12.042969 239.152344 11.429688 237.789062 10.859375 C 236.425781 10.285156 235.046875 9.753906 233.652344 9.265625 C 232.257812 8.773438 230.847656 8.324219 229.429688 7.917969 C 228.007812 7.511719 226.574219 7.144531 225.132812 6.824219 C 223.6875 6.5 222.238281 6.21875 220.777344 5.984375 C 219.316406 5.746094 217.851562 5.554688 216.382812 5.402344 C 214.910156 5.253906 213.4375 5.148438 211.960938 5.082031 C 210.480469 5.019531 209.003906 5 207.523438 5.027344 C 206.046875 5.050781 204.570312 5.117188 203.097656 5.230469 C 201.621094 5.34375 200.152344 5.496094 198.6875 5.695312 C 197.222656 5.894531 195.761719 6.136719 194.3125 6.421875 C 192.859375 6.707031 191.417969 7.035156 189.988281 7.402344 C 188.558594 7.773438 187.136719 8.183594 185.730469 8.640625 C 184.324219 9.09375 182.929688 9.589844 181.550781 10.125 C 180.175781 10.660156 178.8125 11.238281 177.46875 11.855469 C 176.125 12.472656 174.800781 13.128906 173.496094 13.824219 C 172.191406 14.519531 170.90625 15.25 169.644531 16.023438 C 168.382812 16.792969 167.144531 17.601562 165.933594 18.445312 C 164.71875 19.289062 163.53125 20.167969 162.367188 21.082031 C 161.207031 21.996094 160.074219 22.945312 158.964844 23.925781 C 157.859375 24.910156 156.785156 25.921875 155.738281 26.96875 L 29.511719 153.152344 C 28.664062 154.027344 27.832031 154.917969 27.027344 155.828125 C 26.21875 156.742188 25.433594 157.671875 24.671875 158.621094 C 23.910156 159.570312 23.171875 160.539062 22.457031 161.527344 C 21.742188 162.511719 21.054688 163.515625 20.386719 164.535156 C 19.722656 165.554688 19.082031 166.589844 18.464844 167.640625 C 17.851562 168.691406 17.261719 169.753906 16.699219 170.835938 C 16.136719 171.914062 15.597656 173.007812 15.089844 174.113281 C 14.578125 175.21875 14.09375 176.335938 13.640625 177.464844 C 13.183594 178.59375 12.753906 179.734375 12.355469 180.882812 C 11.957031 182.035156 11.582031 183.195312 11.238281 184.363281 C 10.894531 185.53125 10.582031 186.707031 10.292969 187.890625 C 10.007812 189.074219 9.75 190.261719 9.523438 191.457031 C 9.292969 192.65625 9.09375 193.855469 8.925781 195.0625 C 8.753906 196.265625 8.613281 197.476562 8.503906 198.6875 C 8.390625 199.902344 8.308594 201.117188 8.257812 202.332031 C 8.207031 203.550781 8.183594 204.765625 8.191406 205.984375 C 8.199219 207.203125 8.234375 208.417969 8.304688 209.632812 C 8.371094 210.851562 8.464844 212.0625 8.59375 213.273438 C 8.71875 214.484375 8.871094 215.695312 9.058594 216.898438 C 9.242188 218.101562 9.457031 219.300781 9.699219 220.492188 C 9.941406 221.6875 10.214844 222.871094 10.515625 224.050781 C 10.816406 225.230469 11.144531 226.402344 11.503906 227.566406 C 11.859375 228.730469 12.246094 229.886719 12.660156 231.03125 C 13.074219 232.175781 13.519531 233.3125 13.988281 234.433594 C 14.457031 235.558594 14.953125 236.667969 15.476562 237.769531 C 16 238.867188 16.550781 239.953125 17.128906 241.027344 C 17.703125 242.097656 18.304688 243.15625 18.933594 244.199219 C 19.5625 245.242188 20.214844 246.269531 20.894531 247.28125 C 21.570312 248.292969 22.273438 249.289062 23 250.265625 C 23.726562 251.242188 24.476562 252.203125 25.25 253.140625 C 26.023438 254.082031 26.820312 255.003906 27.636719 255.90625 C 28.457031 256.808594 29.296875 257.6875 30.15625 258.550781 C 31.015625 259.410156 31.898438 260.25 32.800781 261.066406 C 33.703125 261.886719 34.625 262.683594 35.566406 263.457031 C 36.507812 264.226562 37.464844 264.976562 38.441406 265.703125 C 39.417969 266.429688 40.414062 267.132812 41.425781 267.8125 C 42.4375 268.488281 43.464844 269.140625 44.507812 269.769531 C 45.550781 270.398438 46.609375 271 47.683594 271.574219 C 48.753906 272.152344 49.839844 272.703125 50.941406 273.226562 C 52.039062 273.75 53.152344 274.246094 54.273438 274.714844 C 55.398438 275.183594 56.53125 275.625 57.679688 276.039062 C 58.824219 276.453125 59.976562 276.839844 61.140625 277.195312 C 62.304688 277.554688 63.476562 277.882812 64.65625 278.183594 C 65.835938 278.484375 67.023438 278.757812 68.21875 279 C 69.410156 279.242188 70.609375 279.457031 71.8125 279.640625 C 73.015625 279.824219 74.222656 279.980469 75.433594 280.105469 C 76.644531 280.230469 77.859375 280.328125 79.074219 280.394531 C 80.292969 280.460938 81.507812 280.496094 82.726562 280.503906 C 83.945312 280.511719 85.160156 280.488281 86.378906 280.4375 C 87.59375 280.386719 88.808594 280.304688 90.019531 280.191406 C 91.234375 280.082031 92.441406 279.941406 93.648438 279.769531 C 94.855469 279.601562 96.054688 279.402344 97.25 279.171875 C 98.449219 278.941406 99.636719 278.683594 100.820312 278.398438 C 102.003906 278.113281 103.179688 277.796875 104.347656 277.453125 C 105.515625 277.109375 106.675781 276.738281 107.824219 276.335938 C 108.976562 275.9375 110.113281 275.507812 111.242188 275.050781 C 112.371094 274.597656 113.492188 274.113281 114.597656 273.601562 C 115.703125 273.09375 116.792969 272.554688 117.875 271.992188 C 118.953125 271.429688 120.019531 270.839844 121.070312 270.222656 C 122.121094 269.605469 123.15625 268.964844 124.175781 268.300781 C 125.195312 267.636719 126.195312 266.945312 127.183594 266.230469 C 128.167969 265.515625 129.136719 264.777344 130.085938 264.015625 C 131.035156 263.253906 131.964844 262.46875 132.878906 261.660156 C 133.789062 260.855469 134.679688 260.023438 135.550781 259.175781 L 223.839844 170.808594 L 223.839844 296.3125 C 223.839844 297.542969 223.867188 298.769531 223.929688 299.996094 C 223.988281 301.222656 224.078125 302.445312 224.199219 303.667969 C 224.316406 304.890625 224.46875 306.109375 224.648438 307.324219 C 224.828125 308.539062 225.035156 309.75 225.273438 310.953125 C 225.515625 312.15625 225.78125 313.355469 226.082031 314.546875 C 226.378906 315.738281 226.707031 316.921875 227.0625 318.097656 C 227.417969 319.273438 227.800781 320.4375 228.214844 321.59375 C 228.628906 322.753906 229.070312 323.898438 229.539062 325.03125 C 230.007812 326.167969 230.507812 327.289062 231.03125 328.398438 C 231.554688 329.511719 232.109375 330.609375 232.6875 331.691406 C 233.265625 332.773438 233.871094 333.84375 234.5 334.894531 C 235.132812 335.949219 235.789062 336.988281 236.46875 338.007812 C 237.152344 339.03125 237.859375 340.035156 238.589844 341.019531 C 239.320312 342.007812 240.078125 342.976562 240.855469 343.925781 C 241.632812 344.875 242.4375 345.804688 243.261719 346.714844 C 244.085938 347.625 244.929688 348.515625 245.800781 349.382812 C 246.667969 350.25 247.558594 351.097656 248.464844 351.921875 C 249.375 352.75 250.304688 353.550781 251.253906 354.328125 C 252.203125 355.109375 253.171875 355.863281 254.15625 356.597656 C 255.144531 357.328125 256.148438 358.035156 257.167969 358.71875 C 258.191406 359.398438 259.226562 360.058594 260.28125 360.6875 C 261.332031 361.320312 262.402344 361.925781 263.484375 362.503906 C 264.566406 363.082031 265.664062 363.636719 266.773438 364.160156 C 267.886719 364.6875 269.007812 365.183594 270.140625 365.652344 C 271.277344 366.125 272.421875 366.566406 273.578125 366.980469 C 274.734375 367.394531 275.898438 367.777344 277.074219 368.136719 C 278.25 368.492188 279.433594 368.820312 280.625 369.117188 C 281.816406 369.417969 283.015625 369.6875 284.21875 369.925781 C 285.421875 370.164062 286.632812 370.375 287.847656 370.554688 C 289.0625 370.734375 290.28125 370.886719 291.503906 371.007812 C 292.726562 371.128906 293.949219 371.21875 295.175781 371.277344 C 296.402344 371.339844 297.628906 371.367188 298.859375 371.367188 C 300.085938 371.367188 301.3125 371.339844 302.539062 371.277344 C 303.765625 371.21875 304.992188 371.128906 306.214844 371.007812 C 307.4375 370.886719 308.65625 370.734375 309.871094 370.554688 C 311.085938 370.375 312.292969 370.164062 313.5 369.925781 C 314.703125 369.6875 315.902344 369.417969 317.09375 369.117188 C 318.285156 368.820312 319.464844 368.492188 320.640625 368.136719 C 321.816406 367.777344 322.984375 367.394531 324.140625 366.980469 C 325.296875 366.566406 326.441406 366.125 327.574219 365.652344 C 328.710938 365.183594 329.832031 364.6875 330.941406 364.160156 C 332.050781 363.636719 333.148438 363.082031 334.230469 362.503906 C 335.316406 361.925781 336.382812 361.320312 337.4375 360.6875 C 338.488281 360.058594 339.527344 359.398438 340.546875 358.71875 C 341.570312 358.035156 342.574219 357.328125 343.558594 356.597656 C 344.546875 355.863281 345.511719 355.109375 346.460938 354.328125 C 347.410156 353.550781 348.339844 352.75 349.25 351.921875 C 350.160156 351.097656 351.050781 350.25 351.917969 349.382812 C 352.785156 348.515625 353.632812 347.625 354.457031 346.714844 C 355.28125 345.804688 356.082031 344.875 356.863281 343.925781 C 357.640625 342.976562 358.394531 342.007812 359.128906 341.019531 C 359.859375 340.035156 360.566406 339.03125 361.246094 338.007812 C 361.929688 336.988281 362.585938 335.949219 363.214844 334.894531 C 363.847656 333.84375 364.453125 332.773438 365.03125 331.691406 C 365.609375 330.609375 366.160156 329.511719 366.6875 328.398438 C 367.210938 327.289062 367.707031 326.167969 368.175781 325.03125 C 368.648438 323.898438 369.089844 322.753906 369.5 321.59375 C 369.914062 320.4375 370.300781 319.273438 370.65625 318.097656 C 371.011719 316.921875 371.339844 315.738281 371.636719 314.546875 C 371.933594 313.355469 372.203125 312.15625 372.441406 310.953125 C 372.679688 309.75 372.890625 308.539062 373.070312 307.324219 C 373.25 306.109375 373.398438 304.890625 373.519531 303.667969 C 373.640625 302.445312 373.730469 301.222656 373.789062 299.996094 C 373.847656 298.769531 373.878906 297.542969 373.878906 296.3125 L 373.878906 117.828125 C 373.875 116.601562 373.84375 115.375 373.78125 114.148438 C 373.722656 112.925781 373.628906 111.703125 373.507812 110.480469 C 373.386719 109.257812 373.238281 108.042969 373.054688 106.828125 C 372.875 105.617188 372.664062 104.40625 372.421875 103.203125 C 372.183594 102 371.914062 100.804688 371.613281 99.617188 C 371.316406 98.425781 370.988281 97.246094 370.632812 96.070312 C 370.273438 94.898438 369.890625 93.734375 369.476562 92.578125 C 369.0625 91.421875 368.617188 90.277344 368.148438 89.144531 C 367.679688 88.011719 367.179688 86.890625 366.65625 85.78125 C 366.132812 84.675781 365.578125 83.578125 365 82.496094 C 364.421875 81.414062 363.816406 80.347656 363.1875 79.296875 C 362.554688 78.246094 361.898438 77.210938 361.21875 76.1875 C 360.535156 75.167969 359.828125 74.167969 359.097656 73.183594 C 358.367188 72.195312 357.613281 71.230469 356.832031 70.28125 C 356.054688 69.332031 355.253906 68.40625 354.429688 67.496094 C 353.605469 66.585938 352.761719 65.699219 351.894531 64.832031 C 351.027344 63.964844 350.136719 63.117188 349.230469 62.292969 C 348.320312 61.46875 347.390625 60.667969 346.441406 59.890625 C 345.496094 59.113281 344.527344 58.359375 343.542969 57.628906 C 342.558594 56.894531 341.554688 56.191406 340.535156 55.507812 C 339.515625 54.828125 338.480469 54.167969 337.429688 53.539062 C 336.375 52.90625 335.308594 52.304688 334.226562 51.722656 C 333.144531 51.144531 332.050781 50.59375 330.941406 50.070312 C 329.832031 49.542969 328.710938 49.046875 327.578125 48.574219 C 326.445312 48.105469 325.300781 47.664062 324.148438 47.25 C 322.992188 46.835938 321.828125 46.449219 320.65625 46.09375 C 319.480469 45.738281 318.300781 45.410156 317.109375 45.109375 C 315.917969 44.8125 314.722656 44.542969 313.519531 44.300781 C 312.316406 44.0625 311.109375 43.851562 309.894531 43.667969 C 308.683594 43.488281 307.464844 43.335938 306.246094 43.214844 C 305.023438 43.09375 303.800781 43.003906 302.574219 42.941406 C 301.351562 42.878906 300.125 42.847656 298.898438 42.847656 Z M 166.75 37.957031 C 168.136719 36.640625 169.582031 35.394531 171.089844 34.21875 C 172.597656 33.039062 174.15625 31.941406 175.769531 30.914062 C 177.386719 29.886719 179.042969 28.941406 180.75 28.078125 C 182.453125 27.210938 184.195312 26.429688 185.976562 25.734375 C 187.757812 25.035156 189.566406 24.425781 191.40625 23.902344 C 193.246094 23.378906 195.109375 22.949219 196.988281 22.605469 C 198.871094 22.261719 200.761719 22.011719 202.667969 21.851562 C 204.574219 21.691406 206.484375 21.625 208.394531 21.648438 C 210.308594 21.671875 212.214844 21.789062 214.113281 22 C 216.015625 22.207031 217.902344 22.507812 219.773438 22.898438 C 221.644531 23.289062 223.492188 23.769531 225.320312 24.339844 C 227.144531 24.90625 228.9375 25.5625 230.699219 26.304688 C 232.460938 27.050781 234.183594 27.875 235.867188 28.785156 C 237.550781 29.691406 239.183594 30.679688 240.769531 31.746094 C 242.355469 32.816406 243.890625 33.957031 245.367188 35.171875 C 246.84375 36.386719 248.257812 37.667969 249.609375 39.019531 C 250.960938 40.371094 252.246094 41.785156 253.464844 43.261719 C 254.679688 44.734375 255.820312 46.265625 256.890625 47.851562 C 257.957031 49.4375 258.949219 51.070312 259.859375 52.753906 C 260.769531 54.433594 261.597656 56.15625 262.339844 57.917969 C 263.085938 59.679688 263.742188 61.472656 264.3125 63.296875 C 264.886719 65.121094 265.367188 66.96875 265.757812 68.839844 C 266.152344 70.714844 266.453125 72.597656 266.664062 74.5 C 266.875 76.398438 266.992188 78.304688 267.019531 80.21875 C 267.046875 82.128906 266.980469 84.039062 266.820312 85.945312 C 266.664062 87.851562 266.414062 89.742188 266.074219 91.625 C 265.730469 93.507812 265.300781 95.367188 264.78125 97.207031 C 264.257812 99.046875 263.652344 100.859375 262.957031 102.640625 C 262.261719 104.421875 261.480469 106.164062 260.617188 107.871094 C 259.753906 109.574219 258.808594 111.234375 257.785156 112.851562 C 256.757812 114.464844 255.660156 116.027344 254.484375 117.535156 C 253.308594 119.042969 252.0625 120.492188 250.75 121.878906 L 191.046875 181.640625 L 107.066406 97.640625 Z M 124.464844 248.164062 C 123.078125 249.480469 121.628906 250.726562 120.121094 251.898438 C 118.613281 253.074219 117.050781 254.175781 115.433594 255.199219 C 113.820312 256.222656 112.160156 257.167969 110.453125 258.03125 C 108.75 258.894531 107.003906 259.675781 105.222656 260.371094 C 103.441406 261.066406 101.632812 261.675781 99.792969 262.195312 C 97.953125 262.714844 96.089844 263.148438 94.210938 263.488281 C 92.328125 263.828125 90.433594 264.078125 88.53125 264.238281 C 86.625 264.394531 84.714844 264.460938 82.804688 264.433594 C 80.890625 264.40625 78.984375 264.289062 77.085938 264.078125 C 75.183594 263.867188 73.296875 263.566406 71.425781 263.175781 C 69.554688 262.78125 67.707031 262.300781 65.882812 261.730469 C 64.058594 261.15625 62.265625 260.5 60.503906 259.757812 C 58.742188 259.011719 57.019531 258.183594 55.339844 257.273438 C 53.65625 256.363281 52.023438 255.375 50.4375 254.304688 C 48.851562 253.238281 47.320312 252.09375 45.84375 250.878906 C 44.371094 249.664062 42.957031 248.378906 41.605469 247.023438 C 40.253906 245.671875 38.96875 244.257812 37.753906 242.78125 C 36.539062 241.304688 35.398438 239.773438 34.332031 238.1875 C 33.265625 236.597656 32.277344 234.964844 31.367188 233.28125 C 30.460938 231.597656 29.632812 229.878906 28.890625 228.117188 C 28.148438 226.351562 27.492188 224.558594 26.921875 222.734375 C 26.351562 220.910156 25.875 219.058594 25.484375 217.1875 C 25.089844 215.316406 24.792969 213.429688 24.582031 211.53125 C 24.375 209.628906 24.257812 207.722656 24.234375 205.808594 C 24.207031 203.898438 24.277344 201.988281 24.4375 200.085938 C 24.597656 198.179688 24.847656 196.285156 25.191406 194.402344 C 25.53125 192.523438 25.964844 190.664062 26.488281 188.824219 C 27.011719 186.984375 27.621094 185.171875 28.316406 183.394531 C 29.015625 181.613281 29.796875 179.871094 30.660156 178.164062 C 31.527344 176.460938 32.472656 174.800781 33.5 173.1875 C 34.523438 171.574219 35.625 170.011719 36.800781 168.503906 C 37.980469 166.996094 39.226562 165.550781 40.542969 164.164062 L 96.035156 108.667969 L 180.019531 192.652344 Z M 340.753906 338.304688 C 339.71875 339.332031 338.652344 340.320312 337.546875 341.269531 C 336.445312 342.222656 335.304688 343.128906 334.136719 343.996094 C 332.964844 344.863281 331.761719 345.683594 330.53125 346.460938 C 329.300781 347.238281 328.039062 347.96875 326.753906 348.65625 C 325.46875 349.339844 324.160156 349.976562 322.828125 350.566406 C 321.496094 351.15625 320.144531 351.695312 318.769531 352.183594 C 317.398438 352.671875 316.011719 353.113281 314.605469 353.5 C 313.203125 353.886719 311.785156 354.222656 310.355469 354.503906 C 308.929688 354.789062 307.492188 355.015625 306.042969 355.195312 C 304.597656 355.371094 303.148438 355.496094 301.695312 355.566406 C 300.238281 355.636719 298.78125 355.652344 297.328125 355.617188 C 295.871094 355.582031 294.417969 355.488281 292.96875 355.347656 C 291.519531 355.203125 290.074219 355.007812 288.640625 354.757812 C 287.207031 354.507812 285.78125 354.207031 284.367188 353.851562 C 282.957031 353.496094 281.558594 353.089844 280.175781 352.632812 C 278.792969 352.175781 277.425781 351.667969 276.082031 351.109375 C 274.734375 350.554688 273.414062 349.945312 272.113281 349.292969 C 270.808594 348.636719 269.535156 347.933594 268.285156 347.1875 C 267.035156 346.4375 265.816406 345.644531 264.625 344.804688 C 263.433594 343.964844 262.277344 343.085938 261.148438 342.160156 C 260.023438 341.234375 258.933594 340.273438 257.878906 339.269531 C 256.820312 338.265625 255.804688 337.222656 254.828125 336.144531 C 253.847656 335.0625 252.910156 333.949219 252.011719 332.800781 C 251.117188 331.65625 250.261719 330.476562 249.453125 329.265625 C 248.644531 328.054688 247.878906 326.816406 247.160156 325.546875 C 246.441406 324.28125 245.769531 322.988281 245.148438 321.671875 C 244.523438 320.355469 243.949219 319.019531 243.421875 317.660156 C 242.898438 316.300781 242.425781 314.925781 242 313.53125 C 241.574219 312.136719 241.203125 310.730469 240.882812 309.308594 C 240.5625 307.886719 240.296875 306.457031 240.078125 305.015625 C 239.863281 303.574219 239.703125 302.128906 239.59375 300.675781 C 239.484375 299.222656 239.429688 297.769531 239.429688 296.3125 L 239.429688 217.824219 L 358.289062 217.824219 L 358.289062 296.3125 C 358.300781 300.214844 357.925781 304.078125 357.171875 307.90625 C 356.414062 311.730469 355.289062 315.449219 353.796875 319.050781 C 352.300781 322.65625 350.46875 326.078125 348.296875 329.316406 C 346.125 332.558594 343.65625 335.554688 340.886719 338.304688 Z M 358.289062 202.238281 L 239.429688 202.238281 L 239.429688 155.21875 L 261.679688 132.96875 C 263.421875 131.234375 265.074219 129.421875 266.636719 127.527344 C 268.199219 125.628906 269.664062 123.660156 271.03125 121.621094 C 272.398438 119.578125 273.664062 117.476562 274.824219 115.3125 C 275.984375 113.144531 277.03125 110.925781 277.972656 108.65625 C 278.914062 106.386719 279.738281 104.078125 280.449219 101.726562 C 281.160156 99.375 281.753906 96.992188 282.230469 94.582031 C 282.707031 92.175781 283.0625 89.746094 283.296875 87.300781 C 283.535156 84.855469 283.648438 82.40625 283.640625 79.949219 C 283.640625 73.5625 282.847656 67.273438 281.261719 61.085938 C 286.972656 59.3125 292.820312 58.425781 298.800781 58.4375 C 300.746094 58.433594 302.6875 58.527344 304.625 58.71875 C 306.5625 58.90625 308.488281 59.191406 310.398438 59.570312 C 312.304688 59.949219 314.191406 60.417969 316.054688 60.984375 C 317.917969 61.546875 319.75 62.199219 321.550781 62.945312 C 323.347656 63.6875 325.105469 64.519531 326.824219 65.433594 C 328.542969 66.351562 330.210938 67.347656 331.828125 68.429688 C 333.449219 69.507812 335.011719 70.667969 336.515625 71.898438 C 338.023438 73.132812 339.464844 74.4375 340.84375 75.8125 C 342.21875 77.1875 343.527344 78.628906 344.761719 80.132812 C 346 81.636719 347.160156 83.195312 348.242188 84.816406 C 349.324219 86.433594 350.324219 88.097656 351.246094 89.816406 C 352.164062 91.53125 352.996094 93.289062 353.742188 95.085938 C 354.488281 96.882812 355.144531 98.714844 355.714844 100.574219 C 356.28125 102.4375 356.753906 104.324219 357.136719 106.234375 C 357.515625 108.140625 357.804688 110.066406 357.996094 112 C 358.191406 113.9375 358.285156 115.878906 358.289062 117.828125 Z M 358.289062 202.238281 " fill-opacity="1" fill-rule="nonzero"/><path fill="#ffffff" d="M 298.898438 42.847656 C 291.023438 42.828125 283.339844 44.03125 275.847656 46.453125 C 275.183594 45.128906 274.484375 43.828125 273.746094 42.546875 C 273.007812 41.265625 272.230469 40.007812 271.417969 38.773438 C 270.605469 37.539062 269.753906 36.328125 268.871094 35.144531 C 267.984375 33.960938 267.066406 32.800781 266.113281 31.671875 C 265.160156 30.542969 264.175781 29.441406 263.15625 28.367188 C 262.136719 27.296875 261.089844 26.253906 260.007812 25.246094 C 258.929688 24.234375 257.820312 23.257812 256.679688 22.3125 C 255.542969 21.367188 254.378906 20.457031 253.1875 19.582031 C 251.996094 18.707031 250.78125 17.867188 249.539062 17.0625 C 248.296875 16.261719 247.035156 15.496094 245.746094 14.765625 C 244.460938 14.035156 243.152344 13.347656 241.828125 12.695312 C 240.5 12.042969 239.152344 11.429688 237.789062 10.859375 C 236.425781 10.285156 235.046875 9.753906 233.652344 9.265625 C 232.257812 8.773438 230.847656 8.324219 229.429688 7.917969 C 228.007812 7.511719 226.574219 7.144531 225.132812 6.824219 C 223.6875 6.5 222.238281 6.21875 220.777344 5.984375 C 219.316406 5.746094 217.851562 5.554688 216.382812 5.402344 C 214.910156 5.253906 213.4375 5.148438 211.960938 5.082031 C 210.480469 5.019531 209.003906 5 207.523438 5.027344 C 206.046875 5.050781 204.570312 5.117188 203.097656 5.230469 C 201.621094 5.34375 200.152344 5.496094 198.6875 5.695312 C 197.222656 5.894531 195.761719 6.136719 194.3125 6.421875 C 192.859375 6.707031 191.417969 7.035156 189.988281 7.402344 C 188.558594 7.773438 187.136719 8.183594 185.730469 8.640625 C 184.324219 9.09375 182.929688 9.589844 181.550781 10.125 C 180.175781 10.660156 178.8125 11.238281 177.46875 11.855469 C 176.125 12.472656 174.800781 13.128906 173.496094 13.824219 C 172.191406 14.519531 170.90625 15.25 169.644531 16.023438 C 168.382812 16.792969 167.144531 17.601562 165.933594 18.445312 C 164.71875 19.289062 163.53125 20.167969 162.367188 21.082031 C 161.207031 21.996094 160.074219 22.945312 158.964844 23.925781 C 157.859375 24.910156 156.785156 25.921875 155.738281 26.96875 L 29.511719 153.152344 C 28.664062 154.027344 27.832031 154.917969 27.027344 155.828125 C 26.21875 156.742188 25.433594 157.671875 24.671875 158.621094 C 23.910156 159.570312 23.171875 160.539062 22.457031 161.527344 C 21.742188 162.511719 21.054688 163.515625 20.386719 164.535156 C 19.722656 165.554688 19.082031 166.589844 18.464844 167.640625 C 17.851562 168.691406 17.261719 169.753906 16.699219 170.835938 C 16.136719 171.914062 15.597656 173.007812 15.089844 174.113281 C 14.578125 175.21875 14.09375 176.335938 13.640625 177.464844 C 13.183594 178.59375 12.753906 179.734375 12.355469 180.882812 C 11.957031 182.035156 11.582031 183.195312 11.238281 184.363281 C 10.894531 185.53125 10.582031 186.707031 10.292969 187.890625 C 10.007812 189.074219 9.75 190.261719 9.523438 191.457031 C 9.292969 192.65625 9.09375 193.855469 8.925781 195.0625 C 8.753906 196.265625 8.613281 197.476562 8.503906 198.6875 C 8.390625 199.902344 8.308594 201.117188 8.257812 202.332031 C 8.207031 203.550781 8.183594 204.765625 8.191406 205.984375 C 8.199219 207.203125 8.234375 208.417969 8.304688 209.632812 C 8.371094 210.851562 8.464844 212.0625 8.59375 213.273438 C 8.71875 214.484375 8.871094 215.695312 9.058594 216.898438 C 9.242188 218.101562 9.457031 219.300781 9.699219 220.492188 C 9.941406 221.6875 10.214844 222.871094 10.515625 224.050781 C 10.816406 225.230469 11.144531 226.402344 11.503906 227.566406 C 11.859375 228.730469 12.246094 229.886719 12.660156 231.03125 C 13.074219 232.175781 13.519531 233.3125 13.988281 234.433594 C 14.457031 235.558594 14.953125 236.667969 15.476562 237.769531 C 16 238.867188 16.550781 239.953125 17.128906 241.027344 C 17.703125 242.097656 18.304688 243.15625 18.933594 244.199219 C 19.5625 245.242188 20.214844 246.269531 20.894531 247.28125 C 21.570312 248.292969 22.273438 249.289062 23 250.265625 C 23.726562 251.242188 24.476562 252.203125 25.25 253.140625 C 26.023438 254.082031 26.820312 255.003906 27.636719 255.90625 C 28.457031 256.808594 29.296875 257.6875 30.15625 258.550781 C 31.015625 259.410156 31.898438 260.25 32.800781 261.066406 C 33.703125 261.886719 34.625 262.683594 35.566406 263.457031 C 36.507812 264.226562 37.464844 264.976562 38.441406 265.703125 C 39.417969 266.429688 40.414062 267.132812 41.425781 267.8125 C 42.4375 268.488281 43.464844 269.140625 44.507812 269.769531 C 45.550781 270.398438 46.609375 271 47.683594 271.574219 C 48.753906 272.152344 49.839844 272.703125 50.941406 273.226562 C 52.039062 273.75 53.152344 274.246094 54.273438 274.714844 C 55.398438 275.183594 56.53125 275.625 57.679688 276.039062 C 58.824219 276.453125 59.976562 276.839844 61.140625 277.195312 C 62.304688 277.554688 63.476562 277.882812 64.65625 278.183594 C 65.835938 278.484375 67.023438 278.757812 68.21875 279 C 69.410156 279.242188 70.609375 279.457031 71.8125 279.640625 C 73.015625 279.824219 74.222656 279.980469 75.433594 280.105469 C 76.644531 280.230469 77.859375 280.328125 79.074219 280.394531 C 80.292969 280.460938 81.507812 280.496094 82.726562 280.503906 C 83.945312 280.511719 85.160156 280.488281 86.378906 280.4375 C 87.59375 280.386719 88.808594 280.304688 90.019531 280.191406 C 91.234375 280.082031 92.441406 279.941406 93.648438 279.769531 C 94.855469 279.601562 96.054688 279.402344 97.25 279.171875 C 98.449219 278.941406 99.636719 278.683594 100.820312 278.398438 C 102.003906 278.113281 103.179688 277.796875 104.347656 277.453125 C 105.515625 277.109375 106.675781 276.738281 107.824219 276.335938 C 108.976562 275.9375 110.113281 275.507812 111.242188 275.050781 C 112.371094 274.597656 113.492188 274.113281 114.597656 273.601562 C 115.703125 273.09375 116.792969 272.554688 117.875 271.992188 C 118.953125 271.429688 120.019531 270.839844 121.070312 270.222656 C 122.121094 269.605469 123.15625 268.964844 124.175781 268.300781 C 125.195312 267.636719 126.195312 266.945312 127.183594 266.230469 C 128.167969 265.515625 129.136719 264.777344 130.085938 264.015625 C 131.035156 263.253906 131.964844 262.46875 132.878906 261.660156 C 133.789062 260.855469 134.679688 260.023438 135.550781 259.175781 L 223.839844 170.808594 L 223.839844 296.3125 C 223.839844 297.542969 223.867188 298.769531 223.929688 299.996094 C 223.988281 301.222656 224.078125 302.445312 224.199219 303.667969 C 224.316406 304.890625 224.46875 306.109375 224.648438 307.324219 C 224.828125 308.539062 225.035156 309.75 225.273438 310.953125 C 225.515625 312.15625 225.78125 313.355469 226.082031 314.546875 C 226.378906 315.738281 226.707031 316.921875 227.0625 318.097656 C 227.417969 319.273438 227.800781 320.4375 228.214844 321.59375 C 228.628906 322.753906 229.070312 323.898438 229.539062 325.03125 C 230.007812 326.167969 230.507812 327.289062 231.03125 328.398438 C 231.554688 329.511719 232.109375 330.609375 232.6875 331.691406 C 233.265625 332.773438 233.871094 333.84375 234.5 334.894531 C 235.132812 335.949219 235.789062 336.988281 236.46875 338.007812 C 237.152344 339.03125 237.859375 340.035156 238.589844 341.019531 C 239.320312 342.007812 240.078125 342.976562 240.855469 343.925781 C 241.632812 344.875 242.4375 345.804688 243.261719 346.714844 C 244.085938 347.625 244.929688 348.515625 245.800781 349.382812 C 246.667969 350.25 247.558594 351.097656 248.464844 351.921875 C 249.375 352.75 250.304688 353.550781 251.253906 354.328125 C 252.203125 355.109375 253.171875 355.863281 254.15625 356.597656 C 255.144531 357.328125 256.148438 358.035156 257.167969 358.71875 C 258.191406 359.398438 259.226562 360.058594 260.28125 360.6875 C 261.332031 361.320312 262.402344 361.925781 263.484375 362.503906 C 264.566406 363.082031 265.664062 363.636719 266.773438 364.160156 C 267.886719 364.6875 269.007812 365.183594 270.140625 365.652344 C 271.277344 366.125 272.421875 366.566406 273.578125 366.980469 C 274.734375 367.394531 275.898438 367.777344 277.074219 368.136719 C 278.25 368.492188 279.433594 368.820312 280.625 369.117188 C 281.816406 369.417969 283.015625 369.6875 284.21875 369.925781 C 285.421875 370.164062 286.632812 370.375 287.847656 370.554688 C 289.0625 370.734375 290.28125 370.886719 291.503906 371.007812 C 292.726562 371.128906 293.949219 371.21875 295.175781 371.277344 C 296.402344 371.339844 297.628906 371.367188 298.859375 371.367188 C 300.085938 371.367188 301.3125 371.339844 302.539062 371.277344 C 303.765625 371.21875 304.992188 371.128906 306.214844 371.007812 C 307.4375 370.886719 308.65625 370.734375 309.871094 370.554688 C 311.085938 370.375 312.292969 370.164062 313.5 369.925781 C 314.703125 369.6875 315.902344 369.417969 317.09375 369.117188 C 318.285156 368.820312 319.464844 368.492188 320.640625 368.136719 C 321.816406 367.777344 322.984375 367.394531 324.140625 366.980469 C 325.296875 366.566406 326.441406 366.125 327.574219 365.652344 C 328.710938 365.183594 329.832031 364.6875 330.941406 364.160156 C 332.050781 363.636719 333.148438 363.082031 334.230469 362.503906 C 335.316406 361.925781 336.382812 361.320312 337.4375 360.6875 C 338.488281 360.058594 339.527344 359.398438 340.546875 358.71875 C 341.570312 358.035156 342.574219 357.328125 343.558594 356.597656 C 344.546875 355.863281 345.511719 355.109375 346.460938 354.328125 C 347.410156 353.550781 348.339844 352.75 349.25 351.921875 C 350.160156 351.097656 351.050781 350.25 351.917969 349.382812 C 352.785156 348.515625 353.632812 347.625 354.457031 346.714844 C 355.28125 345.804688 356.082031 344.875 356.863281 343.925781 C 357.640625 342.976562 358.394531 342.007812 359.128906 341.019531 C 359.859375 340.035156 360.566406 339.03125 361.246094 338.007812 C 361.929688 336.988281 362.585938 335.949219 363.214844 334.894531 C 363.847656 333.84375 364.453125 332.773438 365.03125 331.691406 C 365.609375 330.609375 366.160156 329.511719 366.6875 328.398438 C 367.210938 327.289062 367.707031 326.167969 368.175781 325.03125 C 368.648438 323.898438 369.089844 322.753906 369.5 321.59375 C 369.914062 320.4375 370.300781 319.273438 370.65625 318.097656 C 371.011719 316.921875 371.339844 315.738281 371.636719 314.546875 C 371.933594 313.355469 372.203125 312.15625 372.441406 310.953125 C 372.679688 309.75 372.890625 308.539062 373.070312 307.324219 C 373.25 306.109375 373.398438 304.890625 373.519531 303.667969 C 373.640625 302.445312 373.730469 301.222656 373.789062 299.996094 C 373.847656 298.769531 373.878906 297.542969 373.878906 296.3125 L 373.878906 117.828125 C 373.875 116.601562 373.84375 115.375 373.78125 114.148438 C 373.722656 112.925781 373.628906 111.703125 373.507812 110.480469 C 373.386719 109.257812 373.238281 108.042969 373.054688 106.828125 C 372.875 105.617188 372.664062 104.40625 372.421875 103.203125 C 372.183594 102 371.914062 100.804688 371.613281 99.617188 C 371.316406 98.425781 370.988281 97.246094 370.632812 96.070312 C 370.273438 94.898438 369.890625 93.734375 369.476562 92.578125 C 369.0625 91.421875 368.617188 90.277344 368.148438 89.144531 C 367.679688 88.011719 367.179688 86.890625 366.65625 85.78125 C 366.132812 84.675781 365.578125 83.578125 365 82.496094 C 364.421875 81.414062 363.816406 80.347656 363.1875 79.296875 C 362.554688 78.246094 361.898438 77.210938 361.21875 76.1875 C 360.535156 75.167969 359.828125 74.167969 359.097656 73.183594 C 358.367188 72.195312 357.613281 71.230469 356.832031 70.28125 C 356.054688 69.332031 355.253906 68.40625 354.429688 67.496094 C 353.605469 66.585938 352.761719 65.699219 351.894531 64.832031 C 351.027344 63.964844 350.136719 63.117188 349.230469 62.292969 C 348.320312 61.46875 347.390625 60.667969 346.441406 59.890625 C 345.496094 59.113281 344.527344 58.359375 343.542969 57.628906 C 342.558594 56.894531 341.554688 56.191406 340.535156 55.507812 C 339.515625 54.828125 338.480469 54.167969 337.429688 53.539062 C 336.375 52.90625 335.308594 52.304688 334.226562 51.722656 C 333.144531 51.144531 332.050781 50.59375 330.941406 50.070312 C 329.832031 49.542969 328.710938 49.046875 327.578125 48.574219 C 326.445312 48.105469 325.300781 47.664062 324.148438 47.25 C 322.992188 46.835938 321.828125 46.449219 320.65625 46.09375 C 319.480469 45.738281 318.300781 45.410156 317.109375 45.109375 C 315.917969 44.8125 314.722656 44.542969 313.519531 44.300781 C 312.316406 44.0625 311.109375 43.851562 309.894531 43.667969 C 308.683594 43.488281 307.464844 43.335938 306.246094 43.214844 C 305.023438 43.09375 303.800781 43.003906 302.574219 42.941406 C 301.351562 42.878906 300.125 42.847656 298.898438 42.847656 Z M 166.75 37.957031 C 168.136719 36.640625 169.582031 35.394531 171.089844 34.21875 C 172.597656 33.039062 174.15625 31.941406 175.769531 30.914062 C 177.386719 29.886719 179.042969 28.941406 180.75 28.078125 C 182.453125 27.210938 184.195312 26.429688 185.976562 25.734375 C 187.757812 25.035156 189.566406 24.425781 191.40625 23.902344 C 193.246094 23.378906 195.109375 22.949219 196.988281 22.605469 C 198.871094 22.261719 200.761719 22.011719 202.667969 21.851562 C 204.574219 21.691406 206.484375 21.625 208.394531 21.648438 C 210.308594 21.671875 212.214844 21.789062 214.113281 22 C 216.015625 22.207031 217.902344 22.507812 219.773438 22.898438 C 221.644531 23.289062 223.492188 23.769531 225.320312 24.339844 C 227.144531 24.90625 228.9375 25.5625 230.699219 26.304688 C 232.460938 27.050781 234.183594 27.875 235.867188 28.785156 C 237.550781 29.691406 239.183594 30.679688 240.769531 31.746094 C 242.355469 32.816406 243.890625 33.957031 245.367188 35.171875 C 246.84375 36.386719 248.257812 37.667969 249.609375 39.019531 C 250.960938 40.371094 252.246094 41.785156 253.464844 43.261719 C 254.679688 44.734375 255.820312 46.265625 256.890625 47.851562 C 257.957031 49.4375 258.949219 51.070312 259.859375 52.753906 C 260.769531 54.433594 261.597656 56.15625 262.339844 57.917969 C 263.085938 59.679688 263.742188 61.472656 264.3125 63.296875 C 264.886719 65.121094 265.367188 66.96875 265.757812 68.839844 C 266.152344 70.714844 266.453125 72.597656 266.664062 74.5 C 266.875 76.398438 266.992188 78.304688 267.019531 80.21875 C 267.046875 82.128906 266.980469 84.039062 266.820312 85.945312 C 266.664062 87.851562 266.414062 89.742188 266.074219 91.625 C 265.730469 93.507812 265.300781 95.367188 264.78125 97.207031 C 264.257812 99.046875 263.652344 100.859375 262.957031 102.640625 C 262.261719 104.421875 261.480469 106.164062 260.617188 107.871094 C 259.753906 109.574219 258.808594 111.234375 257.785156 112.851562 C 256.757812 114.464844 255.660156 116.027344 254.484375 117.535156 C 253.308594 119.042969 252.0625 120.492188 250.75 121.878906 L 191.046875 181.640625 L 107.066406 97.640625 Z M 124.464844 248.164062 C 123.078125 249.480469 121.628906 250.726562 120.121094 251.898438 C 118.613281 253.074219 117.050781 254.175781 115.433594 255.199219 C 113.820312 256.222656 112.160156 257.167969 110.453125 258.03125 C 108.75 258.894531 107.003906 259.675781 105.222656 260.371094 C 103.441406 261.066406 101.632812 261.675781 99.792969 262.195312 C 97.953125 262.714844 96.089844 263.148438 94.210938 263.488281 C 92.328125 263.828125 90.433594 264.078125 88.53125 264.238281 C 86.625 264.394531 84.714844 264.460938 82.804688 264.433594 C 80.890625 264.40625 78.984375 264.289062 77.085938 264.078125 C 75.183594 263.867188 73.296875 263.566406 71.425781 263.175781 C 69.554688 262.78125 67.707031 262.300781 65.882812 261.730469 C 64.058594 261.15625 62.265625 260.5 60.503906 259.757812 C 58.742188 259.011719 57.019531 258.183594 55.339844 257.273438 C 53.65625 256.363281 52.023438 255.375 50.4375 254.304688 C 48.851562 253.238281 47.320312 252.09375 45.84375 250.878906 C 44.371094 249.664062 42.957031 248.378906 41.605469 247.023438 C 40.253906 245.671875 38.96875 244.257812 37.753906 242.78125 C 36.539062 241.304688 35.398438 239.773438 34.332031 238.1875 C 33.265625 236.597656 32.277344 234.964844 31.367188 233.28125 C 30.460938 231.597656 29.632812 229.878906 28.890625 228.117188 C 28.148438 226.351562 27.492188 224.558594 26.921875 222.734375 C 26.351562 220.910156 25.875 219.058594 25.484375 217.1875 C 25.089844 215.316406 24.792969 213.429688 24.582031 211.53125 C 24.375 209.628906 24.257812 207.722656 24.234375 205.808594 C 24.207031 203.898438 24.277344 201.988281 24.4375 200.085938 C 24.597656 198.179688 24.847656 196.285156 25.191406 194.402344 C 25.53125 192.523438 25.964844 190.664062 26.488281 188.824219 C 27.011719 186.984375 27.621094 185.171875 28.316406 183.394531 C 29.015625 181.613281 29.796875 179.871094 30.660156 178.164062 C 31.527344 176.460938 32.472656 174.800781 33.5 173.1875 C 34.523438 171.574219 35.625 170.011719 36.800781 168.503906 C 37.980469 166.996094 39.226562 165.550781 40.542969 164.164062 L 96.035156 108.667969 L 180.019531 192.652344 Z M 340.753906 338.304688 C 339.71875 339.332031 338.652344 340.320312 337.546875 341.269531 C 336.445312 342.222656 335.304688 343.128906 334.136719 343.996094 C 332.964844 344.863281 331.761719 345.683594 330.53125 346.460938 C 329.300781 347.238281 328.039062 347.96875 326.753906 348.65625 C 325.46875 349.339844 324.160156 349.976562 322.828125 350.566406 C 321.496094 351.15625 320.144531 351.695312 318.769531 352.183594 C 317.398438 352.671875 316.011719 353.113281 314.605469 353.5 C 313.203125 353.886719 311.785156 354.222656 310.355469 354.503906 C 308.929688 354.789062 307.492188 355.015625 306.042969 355.195312 C 304.597656 355.371094 303.148438 355.496094 301.695312 355.566406 C 300.238281 355.636719 298.78125 355.652344 297.328125 355.617188 C 295.871094 355.582031 294.417969 355.488281 292.96875 355.347656 C 291.519531 355.203125 290.074219 355.007812 288.640625 354.757812 C 287.207031 354.507812 285.78125 354.207031 284.367188 353.851562 C 282.957031 353.496094 281.558594 353.089844 280.175781 352.632812 C 278.792969 352.175781 277.425781 351.667969 276.082031 351.109375 C 274.734375 350.554688 273.414062 349.945312 272.113281 349.292969 C 270.808594 348.636719 269.535156 347.933594 268.285156 347.1875 C 267.035156 346.4375 265.816406 345.644531 264.625 344.804688 C 263.433594 343.964844 262.277344 343.085938 261.148438 342.160156 C 260.023438 341.234375 258.933594 340.273438 257.878906 339.269531 C 256.820312 338.265625 255.804688 337.222656 254.828125 336.144531 C 253.847656 335.0625 252.910156 333.949219 252.011719 332.800781 C 251.117188 331.65625 250.261719 330.476562 249.453125 329.265625 C 248.644531 328.054688 247.878906 326.816406 247.160156 325.546875 C 246.441406 324.28125 245.769531 322.988281 245.148438 321.671875 C 244.523438 320.355469 243.949219 319.019531 243.421875 317.660156 C 242.898438 316.300781 242.425781 314.925781 242 313.53125 C 241.574219 312.136719 241.203125 310.730469 240.882812 309.308594 C 240.5625 307.886719 240.296875 306.457031 240.078125 305.015625 C 239.863281 303.574219 239.703125 302.128906 239.59375 300.675781 C 239.484375 299.222656 239.429688 297.769531 239.429688 296.3125 L 239.429688 217.824219 L 358.289062 217.824219 L 358.289062 296.3125 C 358.300781 300.214844 357.925781 304.078125 357.171875 307.90625 C 356.414062 311.730469 355.289062 315.449219 353.796875 319.050781 C 352.300781 322.65625 350.46875 326.078125 348.296875 329.316406 C 346.125 332.558594 343.65625 335.554688 340.886719 338.304688 Z M 358.289062 202.238281 L 239.429688 202.238281 L 239.429688 155.21875 L 261.679688 132.96875 C 263.421875 131.234375 265.074219 129.421875 266.636719 127.527344 C 268.199219 125.628906 269.664062 123.660156 271.03125 121.621094 C 272.398438 119.578125 273.664062 117.476562 274.824219 115.3125 C 275.984375 113.144531 277.03125 110.925781 277.972656 108.65625 C 278.914062 106.386719 279.738281 104.078125 280.449219 101.726562 C 281.160156 99.375 281.753906 96.992188 282.230469 94.582031 C 282.707031 92.175781 283.0625 89.746094 283.296875 87.300781 C 283.535156 84.855469 283.648438 82.40625 283.640625 79.949219 C 283.640625 73.5625 282.847656 67.273438 281.261719 61.085938 C 286.972656 59.3125 292.820312 58.425781 298.800781 58.4375 C 300.746094 58.433594 302.6875 58.527344 304.625 58.71875 C 306.5625 58.90625 308.488281 59.191406 310.398438 59.570312 C 312.304688 59.949219 314.191406 60.417969 316.054688 60.984375 C 317.917969 61.546875 319.75 62.199219 321.550781 62.945312 C 323.347656 63.6875 325.105469 64.519531 326.824219 65.433594 C 328.542969 66.351562 330.210938 67.347656 331.828125 68.429688 C 333.449219 69.507812 335.011719 70.667969 336.515625 71.898438 C 338.023438 73.132812 339.464844 74.4375 340.84375 75.8125 C 342.21875 77.1875 343.527344 78.628906 344.761719 80.132812 C 346 81.636719 347.160156 83.195312 348.242188 84.816406 C 349.324219 86.433594 350.324219 88.097656 351.246094 89.816406 C 352.164062 91.53125 352.996094 93.289062 353.742188 95.085938 C 354.488281 96.882812 355.144531 98.714844 355.714844 100.574219 C 356.28125 102.4375 356.753906 104.324219 357.136719 106.234375 C 357.515625 108.140625 357.804688 110.066406 357.996094 112 C 358.191406 113.9375 358.285156 115.878906 358.289062 117.828125 Z M 358.289062 202.238281 " fill-opacity="1" fill-rule="nonzero"/></svg>