<svg xmlns="http://www.w3.org/2000/svg" xmlns:xlink="http://www.w3.org/1999/xlink" width="500" zoomAndPan="magnify" viewBox="0 0 375 374.999991" height="500" preserveAspectRatio="xMidYMid meet" version="1.0"><defs><clipPath id="0fb0b91bcd"><path d="M 36 37.5 L 338 37.5 L 338 222 L 36 222 Z M 36 37.5 " clip-rule="nonzero"/></clipPath><clipPath id="4a2eca5305"><path d="M 1 228 L 375 228 L 375 295.5 L 1 295.5 Z M 1 228 " clip-rule="nonzero"/></clipPath><clipPath id="1688607abd"><path d="M 119.195312 63.773438 L 255.695312 63.773438 L 255.695312 200.273438 L 119.195312 200.273438 Z M 119.195312 63.773438 " clip-rule="nonzero"/></clipPath><clipPath id="1c358512d9"><path d="M 36 37.5 L 338 37.5 L 338 222 L 36 222 Z M 36 37.5 " clip-rule="nonzero"/></clipPath><clipPath id="f4eb5071db"><path d="M 1 228 L 375 228 L 375 295.5 L 1 295.5 Z M 1 228 " clip-rule="nonzero"/></clipPath><clipPath id="cc0e5e8a54"><path d="M 119.195312 63.773438 L 255.695312 63.773438 L 255.695312 200.273438 L 119.195312 200.273438 Z M 119.195312 63.773438 " clip-rule="nonzero"/></clipPath></defs><g clip-path="url(#0fb0b91bcd)"><path fill="#ffffff" d="M 41.195312 217.40625 C 45.40625 221.101562 50.996094 221.722656 54.304688 221.722656 C 55.320312 221.722656 56.128906 221.664062 56.609375 221.617188 L 313.617188 221.617188 C 328.597656 221.617188 334.074219 211.476562 334.882812 206.113281 L 334.9375 205.753906 L 334.9375 205.390625 C 334.9375 204.03125 337.152344 69.535156 337.332031 56.046875 C 337.417969 48.914062 334.617188 44.703125 332.195312 42.429688 C 327.164062 37.636719 320.433594 37.613281 318.960938 37.683594 C 312.253906 37.683594 74.335938 37.75 59.242188 37.683594 L 59.113281 37.683594 C 52.621094 37.683594 47.332031 39.667969 43.386719 43.597656 C 37.132812 49.820312 36.957031 58.40625 36.957031 59.328125 L 36.144531 205.300781 C 36.144531 211.640625 38.890625 215.382812 41.195312 217.40625 Z M 47.976562 59.402344 C 48.085938 57.3125 48.628906 55.339844 49.605469 53.488281 C 51.429688 50.179688 54.464844 48.632812 59.171875 48.632812 L 59.261719 48.632812 C 74.492188 48.695312 316.683594 48.632812 319.121094 48.632812 L 319.46875 48.632812 C 319.46875 48.632812 322.792969 48.582031 324.683594 50.382812 C 325.863281 51.503906 326.445312 53.367188 326.414062 55.925781 C 326.242188 68.964844 324.183594 195.378906 324.03125 204.695312 C 323.632812 206.203125 321.773438 210.683594 313.644531 210.683594 L 55.632812 210.683594 C 54.378906 210.832031 50.355469 210.867188 48.410156 209.136719 C 47.847656 208.636719 47.101562 207.695312 47.101562 205.3125 Z M 47.976562 59.402344 " fill-opacity="1" fill-rule="nonzero"/></g><g clip-path="url(#4a2eca5305)"><path fill="#ffffff" d="M 374.761719 282.898438 L 374.652344 281.386719 L 339.335938 231.007812 C 339.125 230.734375 338.886719 230.484375 338.621094 230.253906 C 338.359375 230.027344 338.078125 229.824219 337.777344 229.648438 C 337.476562 229.472656 337.164062 229.328125 336.835938 229.214844 C 336.507812 229.097656 336.171875 229.015625 335.828125 228.964844 C 335.484375 228.914062 335.136719 228.894531 334.789062 228.910156 C 334.441406 228.925781 334.101562 228.972656 333.761719 229.050781 C 333.421875 229.132812 333.09375 229.242188 332.777344 229.386719 C 332.460938 229.527344 332.160156 229.699219 331.875 229.898438 C 331.589844 230.097656 331.328125 230.324219 331.085938 230.574219 C 330.84375 230.824219 330.628906 231.09375 330.4375 231.386719 C 330.246094 231.675781 330.085938 231.984375 329.953125 232.304688 C 329.820312 232.625 329.722656 232.957031 329.652344 233.296875 C 329.582031 233.640625 329.546875 233.984375 329.542969 234.332031 C 329.539062 234.679688 329.570312 235.023438 329.632812 235.367188 C 329.695312 235.707031 329.789062 236.042969 329.914062 236.367188 C 330.039062 236.691406 330.195312 237 330.378906 237.292969 L 363.222656 284.144531 C 361.90625 284.609375 360.546875 284.835938 359.152344 284.824219 L 359.003906 284.824219 C 355.613281 284.824219 23.617188 283.3125 14.042969 283.3125 C 13.441406 283.332031 12.847656 283.261719 12.265625 283.101562 C 12.253906 282.917969 12.253906 282.734375 12.265625 282.550781 L 41.90625 239.371094 C 42.113281 239.074219 42.285156 238.757812 42.425781 238.429688 C 42.570312 238.097656 42.675781 237.757812 42.753906 237.40625 C 42.828125 237.054688 42.867188 236.699219 42.871094 236.339844 C 42.875 235.980469 42.847656 235.621094 42.78125 235.269531 C 42.714844 234.914062 42.617188 234.570312 42.480469 234.238281 C 42.347656 233.902344 42.183594 233.585938 41.988281 233.285156 C 41.792969 232.980469 41.570312 232.703125 41.316406 232.445312 C 41.066406 232.1875 40.792969 231.957031 40.496094 231.753906 C 40.199219 231.550781 39.886719 231.378906 39.554688 231.234375 C 39.226562 231.09375 38.882812 230.984375 38.53125 230.910156 C 38.179688 230.835938 37.824219 230.796875 37.464844 230.792969 C 37.105469 230.789062 36.75 230.816406 36.394531 230.882812 C 36.042969 230.949219 35.699219 231.050781 35.363281 231.183594 C 35.03125 231.316406 34.710938 231.480469 34.410156 231.679688 C 34.109375 231.875 33.832031 232.097656 33.574219 232.347656 C 33.316406 232.601562 33.085938 232.875 32.882812 233.171875 L 2.21875 277.859375 L 1.972656 278.589844 C 1.761719 279.230469 0.0117188 284.933594 3.328125 289.570312 C 4.867188 291.699219 7.976562 294.242188 14.015625 294.242188 C 23.511719 294.242188 352.582031 295.726562 358.859375 295.753906 L 359.300781 295.753906 C 361.5 295.753906 367.867188 295.382812 371.785156 291.304688 C 372.871094 290.1875 373.671875 288.894531 374.191406 287.425781 C 374.710938 285.957031 374.902344 284.449219 374.761719 282.898438 Z M 374.761719 282.898438 " fill-opacity="1" fill-rule="nonzero"/></g><path fill="#ffffff" d="M 207.253906 257.515625 L 172.667969 257.515625 C 168.941406 257.726562 166.316406 259.019531 164.871094 261.355469 C 162.835938 264.644531 164.316406 268.351562 164.492188 268.757812 L 164.851562 269.59375 L 175.191406 277.050781 L 203.589844 276.761719 L 214.238281 269.132812 L 214.441406 267.777344 C 214.570312 266.957031 215.066406 262.703125 212.597656 259.835938 C 211.925781 259.066406 211.125 258.480469 210.1875 258.074219 C 209.25 257.667969 208.273438 257.480469 207.253906 257.515625 Z M 201.433594 270.230469 L 177.273438 270.472656 L 170.34375 265.492188 C 170.304688 265.257812 170.332031 265.03125 170.417969 264.8125 C 170.546875 264.609375 171.238281 264.195312 172.914062 264.09375 L 207.226562 264.09375 C 207.34375 264.089844 207.457031 264.101562 207.574219 264.128906 C 207.824219 264.570312 207.945312 265.046875 207.9375 265.558594 Z M 201.433594 270.230469 " fill-opacity="1" fill-rule="nonzero"/><g clip-path="url(#1688607abd)"><path fill="#ffffff" d="M 123.230469 157.722656 L 161.859375 157.722656 L 161.859375 196.363281 C 161.859375 196.625 161.886719 196.886719 161.9375 197.144531 C 161.988281 197.402344 162.0625 197.652344 162.164062 197.898438 C 162.265625 198.140625 162.386719 198.371094 162.535156 198.589844 C 162.679688 198.808594 162.847656 199.011719 163.03125 199.199219 C 163.21875 199.382812 163.421875 199.550781 163.640625 199.695312 C 163.859375 199.84375 164.089844 199.964844 164.332031 200.066406 C 164.574219 200.167969 164.828125 200.242188 165.085938 200.296875 C 165.34375 200.347656 165.601562 200.371094 165.867188 200.371094 L 209.140625 200.371094 C 209.402344 200.371094 209.664062 200.347656 209.921875 200.296875 C 210.179688 200.242188 210.429688 200.167969 210.675781 200.066406 C 210.917969 199.964844 211.148438 199.84375 211.367188 199.695312 C 211.585938 199.550781 211.789062 199.382812 211.976562 199.199219 C 212.160156 199.011719 212.328125 198.808594 212.472656 198.589844 C 212.617188 198.371094 212.742188 198.140625 212.84375 197.898438 C 212.945312 197.652344 213.019531 197.402344 213.070312 197.144531 C 213.121094 196.886719 213.148438 196.625 213.148438 196.363281 L 213.148438 157.722656 L 251.773438 157.722656 C 252.039062 157.722656 252.300781 157.699219 252.558594 157.648438 C 252.816406 157.597656 253.066406 157.519531 253.308594 157.421875 C 253.554688 157.320312 253.785156 157.195312 254.003906 157.050781 C 254.222656 156.902344 254.425781 156.738281 254.613281 156.550781 C 254.796875 156.367188 254.964844 156.164062 255.109375 155.945312 C 255.257812 155.726562 255.382812 155.496094 255.480469 155.25 C 255.582031 155.007812 255.660156 154.757812 255.710938 154.5 C 255.761719 154.242188 255.789062 153.980469 255.789062 153.714844 L 255.789062 110.433594 C 255.789062 110.167969 255.761719 109.90625 255.710938 109.648438 C 255.660156 109.390625 255.585938 109.140625 255.484375 108.894531 C 255.382812 108.652344 255.261719 108.421875 255.113281 108.203125 C 254.96875 107.984375 254.800781 107.78125 254.617188 107.59375 C 254.429688 107.40625 254.226562 107.242188 254.007812 107.09375 C 253.789062 106.949219 253.558594 106.824219 253.316406 106.722656 C 253.070312 106.625 252.820312 106.546875 252.5625 106.496094 C 252.304688 106.445312 252.042969 106.417969 251.78125 106.417969 L 213.148438 106.417969 L 213.148438 67.78125 C 213.148438 67.515625 213.121094 67.257812 213.070312 66.996094 C 213.019531 66.738281 212.945312 66.488281 212.84375 66.246094 C 212.742188 66.003906 212.617188 65.773438 212.472656 65.554688 C 212.328125 65.335938 212.160156 65.132812 211.972656 64.945312 C 211.789062 64.757812 211.585938 64.59375 211.367188 64.445312 C 211.148438 64.300781 210.917969 64.175781 210.675781 64.078125 C 210.429688 63.976562 210.179688 63.902344 209.921875 63.847656 C 209.664062 63.796875 209.402344 63.773438 209.140625 63.773438 L 165.867188 63.773438 C 165.605469 63.773438 165.34375 63.796875 165.085938 63.851562 C 164.828125 63.902344 164.578125 63.976562 164.332031 64.078125 C 164.089844 64.179688 163.859375 64.300781 163.640625 64.449219 C 163.421875 64.59375 163.21875 64.761719 163.03125 64.945312 C 162.847656 65.132812 162.679688 65.335938 162.535156 65.554688 C 162.386719 65.773438 162.265625 66.003906 162.164062 66.246094 C 162.0625 66.488281 161.988281 66.738281 161.9375 67 C 161.886719 67.257812 161.859375 67.515625 161.859375 67.78125 L 161.859375 106.417969 L 123.230469 106.417969 C 122.96875 106.417969 122.707031 106.445312 122.449219 106.496094 C 122.191406 106.546875 121.941406 106.625 121.695312 106.722656 C 121.453125 106.824219 121.222656 106.949219 121.003906 107.09375 C 120.785156 107.242188 120.582031 107.40625 120.394531 107.59375 C 120.210938 107.78125 120.042969 107.984375 119.898438 108.203125 C 119.75 108.421875 119.628906 108.652344 119.527344 108.894531 C 119.425781 109.140625 119.351562 109.390625 119.296875 109.648438 C 119.246094 109.90625 119.222656 110.167969 119.222656 110.433594 L 119.222656 153.714844 C 119.222656 153.980469 119.246094 154.242188 119.300781 154.5 C 119.351562 154.757812 119.425781 155.007812 119.527344 155.25 C 119.628906 155.492188 119.753906 155.722656 119.898438 155.941406 C 120.046875 156.160156 120.210938 156.363281 120.398438 156.550781 C 120.582031 156.734375 120.785156 156.902344 121.003906 157.046875 C 121.222656 157.195312 121.453125 157.316406 121.699219 157.417969 C 121.941406 157.519531 122.191406 157.59375 122.449219 157.648438 C 122.707031 157.699219 122.96875 157.722656 123.230469 157.722656 Z M 127.238281 114.4375 L 165.867188 114.4375 C 166.128906 114.4375 166.390625 114.414062 166.648438 114.363281 C 166.90625 114.3125 167.160156 114.234375 167.402344 114.136719 C 167.644531 114.035156 167.875 113.910156 168.09375 113.765625 C 168.316406 113.621094 168.515625 113.453125 168.703125 113.265625 C 168.890625 113.082031 169.054688 112.878906 169.203125 112.660156 C 169.347656 112.441406 169.472656 112.210938 169.574219 111.964844 C 169.675781 111.722656 169.75 111.472656 169.800781 111.214844 C 169.855469 110.957031 169.878906 110.695312 169.878906 110.433594 L 169.878906 71.789062 L 205.132812 71.789062 L 205.132812 110.433594 C 205.132812 110.695312 205.160156 110.957031 205.210938 111.214844 C 205.261719 111.472656 205.335938 111.722656 205.4375 111.964844 C 205.539062 112.207031 205.660156 112.4375 205.808594 112.65625 C 205.953125 112.875 206.121094 113.078125 206.304688 113.265625 C 206.492188 113.453125 206.695312 113.617188 206.914062 113.761719 C 207.132812 113.910156 207.363281 114.03125 207.605469 114.132812 C 207.851562 114.234375 208.101562 114.308594 208.359375 114.363281 C 208.617188 114.414062 208.878906 114.4375 209.140625 114.4375 L 247.769531 114.4375 L 247.769531 149.707031 L 209.140625 149.707031 C 208.875 149.707031 208.617188 149.730469 208.359375 149.785156 C 208.101562 149.835938 207.847656 149.910156 207.605469 150.011719 C 207.363281 150.113281 207.132812 150.234375 206.914062 150.382812 C 206.695312 150.527344 206.492188 150.695312 206.304688 150.882812 C 206.121094 151.066406 205.953125 151.269531 205.808594 151.488281 C 205.660156 151.707031 205.539062 151.9375 205.4375 152.183594 C 205.335938 152.425781 205.261719 152.675781 205.210938 152.933594 C 205.160156 153.191406 205.132812 153.453125 205.132812 153.714844 L 205.132812 192.351562 L 169.878906 192.351562 L 169.878906 153.714844 C 169.878906 153.453125 169.855469 153.191406 169.800781 152.933594 C 169.75 152.675781 169.675781 152.425781 169.574219 152.183594 C 169.472656 151.9375 169.351562 151.707031 169.203125 151.488281 C 169.058594 151.269531 168.890625 151.066406 168.703125 150.882812 C 168.519531 150.695312 168.316406 150.527344 168.097656 150.382812 C 167.878906 150.234375 167.648438 150.113281 167.402344 150.011719 C 167.160156 149.910156 166.910156 149.835938 166.652344 149.785156 C 166.394531 149.730469 166.132812 149.707031 165.871094 149.707031 L 127.238281 149.707031 Z M 127.238281 114.4375 " fill-opacity="1" fill-rule="nonzero"/></g><g clip-path="url(#1c358512d9)"><path fill="#ffffff" d="M 41.195312 217.40625 C 45.40625 221.101562 50.996094 221.722656 54.304688 221.722656 C 55.320312 221.722656 56.128906 221.664062 56.609375 221.617188 L 313.617188 221.617188 C 328.597656 221.617188 334.074219 211.476562 334.882812 206.113281 L 334.9375 205.753906 L 334.9375 205.390625 C 334.9375 204.03125 337.152344 69.535156 337.332031 56.046875 C 337.417969 48.914062 334.617188 44.703125 332.195312 42.429688 C 327.164062 37.636719 320.433594 37.613281 318.960938 37.683594 C 312.253906 37.683594 74.335938 37.75 59.242188 37.683594 L 59.113281 37.683594 C 52.621094 37.683594 47.332031 39.667969 43.386719 43.597656 C 37.132812 49.820312 36.957031 58.40625 36.957031 59.328125 L 36.144531 205.300781 C 36.144531 211.640625 38.890625 215.382812 41.195312 217.40625 Z M 47.976562 59.402344 C 48.085938 57.3125 48.628906 55.339844 49.605469 53.488281 C 51.429688 50.179688 54.464844 48.632812 59.171875 48.632812 L 59.261719 48.632812 C 74.492188 48.695312 316.683594 48.632812 319.121094 48.632812 L 319.46875 48.632812 C 319.46875 48.632812 322.792969 48.582031 324.683594 50.382812 C 325.863281 51.503906 326.445312 53.367188 326.414062 55.925781 C 326.242188 68.964844 324.183594 195.378906 324.03125 204.695312 C 323.632812 206.203125 321.773438 210.683594 313.644531 210.683594 L 55.632812 210.683594 C 54.378906 210.832031 50.355469 210.867188 48.410156 209.136719 C 47.847656 208.636719 47.101562 207.695312 47.101562 205.3125 Z M 47.976562 59.402344 " fill-opacity="1" fill-rule="nonzero"/></g><g clip-path="url(#f4eb5071db)"><path fill="#ffffff" d="M 374.761719 282.898438 L 374.652344 281.386719 L 339.335938 231.007812 C 339.125 230.734375 338.886719 230.484375 338.621094 230.253906 C 338.359375 230.027344 338.078125 229.824219 337.777344 229.648438 C 337.476562 229.472656 337.164062 229.328125 336.835938 229.214844 C 336.507812 229.097656 336.171875 229.015625 335.828125 228.964844 C 335.484375 228.914062 335.136719 228.894531 334.789062 228.910156 C 334.441406 228.925781 334.101562 228.972656 333.761719 229.050781 C 333.421875 229.132812 333.09375 229.242188 332.777344 229.386719 C 332.460938 229.527344 332.160156 229.699219 331.875 229.898438 C 331.589844 230.097656 331.328125 230.324219 331.085938 230.574219 C 330.84375 230.824219 330.628906 231.09375 330.4375 231.386719 C 330.246094 231.675781 330.085938 231.984375 329.953125 232.304688 C 329.820312 232.625 329.722656 232.957031 329.652344 233.296875 C 329.582031 233.640625 329.546875 233.984375 329.542969 234.332031 C 329.539062 234.679688 329.570312 235.023438 329.632812 235.367188 C 329.695312 235.707031 329.789062 236.042969 329.914062 236.367188 C 330.039062 236.691406 330.195312 237 330.378906 237.292969 L 363.222656 284.144531 C 361.90625 284.609375 360.546875 284.835938 359.152344 284.824219 L 359.003906 284.824219 C 355.613281 284.824219 23.617188 283.3125 14.042969 283.3125 C 13.441406 283.332031 12.847656 283.261719 12.265625 283.101562 C 12.253906 282.917969 12.253906 282.734375 12.265625 282.550781 L 41.90625 239.371094 C 42.113281 239.074219 42.285156 238.757812 42.425781 238.429688 C 42.570312 238.097656 42.675781 237.757812 42.753906 237.40625 C 42.828125 237.054688 42.867188 236.699219 42.871094 236.339844 C 42.875 235.980469 42.847656 235.621094 42.78125 235.269531 C 42.714844 234.914062 42.617188 234.570312 42.480469 234.238281 C 42.347656 233.902344 42.183594 233.585938 41.988281 233.285156 C 41.792969 232.980469 41.570312 232.703125 41.316406 232.445312 C 41.066406 232.1875 40.792969 231.957031 40.496094 231.753906 C 40.199219 231.550781 39.886719 231.378906 39.554688 231.234375 C 39.226562 231.09375 38.882812 230.984375 38.53125 230.910156 C 38.179688 230.835938 37.824219 230.796875 37.464844 230.792969 C 37.105469 230.789062 36.75 230.816406 36.394531 230.882812 C 36.042969 230.949219 35.699219 231.050781 35.363281 231.183594 C 35.03125 231.316406 34.710938 231.480469 34.410156 231.679688 C 34.109375 231.875 33.832031 232.097656 33.574219 232.347656 C 33.316406 232.601562 33.085938 232.875 32.882812 233.171875 L 2.21875 277.859375 L 1.972656 278.589844 C 1.761719 279.230469 0.0117188 284.933594 3.328125 289.570312 C 4.867188 291.699219 7.976562 294.242188 14.015625 294.242188 C 23.511719 294.242188 352.582031 295.726562 358.859375 295.753906 L 359.300781 295.753906 C 361.5 295.753906 367.867188 295.382812 371.785156 291.304688 C 372.871094 290.1875 373.671875 288.894531 374.191406 287.425781 C 374.710938 285.957031 374.902344 284.449219 374.761719 282.898438 Z M 374.761719 282.898438 " fill-opacity="1" fill-rule="nonzero"/></g><path fill="#ffffff" d="M 207.253906 257.515625 L 172.667969 257.515625 C 168.941406 257.726562 166.316406 259.019531 164.871094 261.355469 C 162.835938 264.644531 164.316406 268.351562 164.492188 268.757812 L 164.851562 269.59375 L 175.191406 277.050781 L 203.589844 276.761719 L 214.238281 269.132812 L 214.441406 267.777344 C 214.570312 266.957031 215.066406 262.703125 212.597656 259.835938 C 211.925781 259.066406 211.125 258.480469 210.1875 258.074219 C 209.25 257.667969 208.273438 257.480469 207.253906 257.515625 Z M 201.433594 270.230469 L 177.273438 270.472656 L 170.34375 265.492188 C 170.304688 265.257812 170.332031 265.03125 170.417969 264.8125 C 170.546875 264.609375 171.238281 264.195312 172.914062 264.09375 L 207.226562 264.09375 C 207.34375 264.089844 207.457031 264.101562 207.574219 264.128906 C 207.824219 264.570312 207.945312 265.046875 207.9375 265.558594 Z M 201.433594 270.230469 " fill-opacity="1" fill-rule="nonzero"/><g clip-path="url(#cc0e5e8a54)"><path fill="#ffffff" d="M 123.230469 157.722656 L 161.859375 157.722656 L 161.859375 196.363281 C 161.859375 196.625 161.886719 196.886719 161.9375 197.144531 C 161.988281 197.402344 162.0625 197.652344 162.164062 197.898438 C 162.265625 198.140625 162.386719 198.371094 162.535156 198.589844 C 162.679688 198.808594 162.847656 199.011719 163.03125 199.199219 C 163.21875 199.382812 163.421875 199.550781 163.640625 199.695312 C 163.859375 199.84375 164.089844 199.964844 164.332031 200.066406 C 164.574219 200.167969 164.828125 200.242188 165.085938 200.296875 C 165.34375 200.347656 165.601562 200.371094 165.867188 200.371094 L 209.140625 200.371094 C 209.402344 200.371094 209.664062 200.347656 209.921875 200.296875 C 210.179688 200.242188 210.429688 200.167969 210.675781 200.066406 C 210.917969 199.964844 211.148438 199.84375 211.367188 199.695312 C 211.585938 199.550781 211.789062 199.382812 211.976562 199.199219 C 212.160156 199.011719 212.328125 198.808594 212.472656 198.589844 C 212.617188 198.371094 212.742188 198.140625 212.84375 197.898438 C 212.945312 197.652344 213.019531 197.402344 213.070312 197.144531 C 213.121094 196.886719 213.148438 196.625 213.148438 196.363281 L 213.148438 157.722656 L 251.773438 157.722656 C 252.039062 157.722656 252.300781 157.699219 252.558594 157.648438 C 252.816406 157.597656 253.066406 157.519531 253.308594 157.421875 C 253.554688 157.320312 253.785156 157.195312 254.003906 157.050781 C 254.222656 156.902344 254.425781 156.738281 254.613281 156.550781 C 254.796875 156.367188 254.964844 156.164062 255.109375 155.945312 C 255.257812 155.726562 255.382812 155.496094 255.480469 155.25 C 255.582031 155.007812 255.660156 154.757812 255.710938 154.5 C 255.761719 154.242188 255.789062 153.980469 255.789062 153.714844 L 255.789062 110.433594 C 255.789062 110.167969 255.761719 109.90625 255.710938 109.648438 C 255.660156 109.390625 255.585938 109.140625 255.484375 108.894531 C 255.382812 108.652344 255.261719 108.421875 255.113281 108.203125 C 254.96875 107.984375 254.800781 107.78125 254.617188 107.59375 C 254.429688 107.40625 254.226562 107.242188 254.007812 107.09375 C 253.789062 106.949219 253.558594 106.824219 253.316406 106.722656 C 253.070312 106.625 252.820312 106.546875 252.5625 106.496094 C 252.304688 106.445312 252.042969 106.417969 251.78125 106.417969 L 213.148438 106.417969 L 213.148438 67.78125 C 213.148438 67.515625 213.121094 67.257812 213.070312 66.996094 C 213.019531 66.738281 212.945312 66.488281 212.84375 66.246094 C 212.742188 66.003906 212.617188 65.773438 212.472656 65.554688 C 212.328125 65.335938 212.160156 65.132812 211.972656 64.945312 C 211.789062 64.757812 211.585938 64.59375 211.367188 64.445312 C 211.148438 64.300781 210.917969 64.175781 210.675781 64.078125 C 210.429688 63.976562 210.179688 63.902344 209.921875 63.847656 C 209.664062 63.796875 209.402344 63.773438 209.140625 63.773438 L 165.867188 63.773438 C 165.605469 63.773438 165.34375 63.796875 165.085938 63.851562 C 164.828125 63.902344 164.578125 63.976562 164.332031 64.078125 C 164.089844 64.179688 163.859375 64.300781 163.640625 64.449219 C 163.421875 64.59375 163.21875 64.761719 163.03125 64.945312 C 162.847656 65.132812 162.679688 65.335938 162.535156 65.554688 C 162.386719 65.773438 162.265625 66.003906 162.164062 66.246094 C 162.0625 66.488281 161.988281 66.738281 161.9375 67 C 161.886719 67.257812 161.859375 67.515625 161.859375 67.78125 L 161.859375 106.417969 L 123.230469 106.417969 C 122.96875 106.417969 122.707031 106.445312 122.449219 106.496094 C 122.191406 106.546875 121.941406 106.625 121.695312 106.722656 C 121.453125 106.824219 121.222656 106.949219 121.003906 107.09375 C 120.785156 107.242188 120.582031 107.40625 120.394531 107.59375 C 120.210938 107.78125 120.042969 107.984375 119.898438 108.203125 C 119.75 108.421875 119.628906 108.652344 119.527344 108.894531 C 119.425781 109.140625 119.351562 109.390625 119.296875 109.648438 C 119.246094 109.90625 119.222656 110.167969 119.222656 110.433594 L 119.222656 153.714844 C 119.222656 153.980469 119.246094 154.242188 119.300781 154.5 C 119.351562 154.757812 119.425781 155.007812 119.527344 155.25 C 119.628906 155.492188 119.753906 155.722656 119.898438 155.941406 C 120.046875 156.160156 120.210938 156.363281 120.398438 156.550781 C 120.582031 156.734375 120.785156 156.902344 121.003906 157.046875 C 121.222656 157.195312 121.453125 157.316406 121.699219 157.417969 C 121.941406 157.519531 122.191406 157.59375 122.449219 157.648438 C 122.707031 157.699219 122.96875 157.722656 123.230469 157.722656 Z M 127.238281 114.4375 L 165.867188 114.4375 C 166.128906 114.4375 166.390625 114.414062 166.648438 114.363281 C 166.90625 114.3125 167.160156 114.234375 167.402344 114.136719 C 167.644531 114.035156 167.875 113.910156 168.09375 113.765625 C 168.316406 113.621094 168.515625 113.453125 168.703125 113.265625 C 168.890625 113.082031 169.054688 112.878906 169.203125 112.660156 C 169.347656 112.441406 169.472656 112.210938 169.574219 111.964844 C 169.675781 111.722656 169.75 111.472656 169.800781 111.214844 C 169.855469 110.957031 169.878906 110.695312 169.878906 110.433594 L 169.878906 71.789062 L 205.132812 71.789062 L 205.132812 110.433594 C 205.132812 110.695312 205.160156 110.957031 205.210938 111.214844 C 205.261719 111.472656 205.335938 111.722656 205.4375 111.964844 C 205.539062 112.207031 205.660156 112.4375 205.808594 112.65625 C 205.953125 112.875 206.121094 113.078125 206.304688 113.265625 C 206.492188 113.453125 206.695312 113.617188 206.914062 113.761719 C 207.132812 113.910156 207.363281 114.03125 207.605469 114.132812 C 207.851562 114.234375 208.101562 114.308594 208.359375 114.363281 C 208.617188 114.414062 208.878906 114.4375 209.140625 114.4375 L 247.769531 114.4375 L 247.769531 149.707031 L 209.140625 149.707031 C 208.875 149.707031 208.617188 149.730469 208.359375 149.785156 C 208.101562 149.835938 207.847656 149.910156 207.605469 150.011719 C 207.363281 150.113281 207.132812 150.234375 206.914062 150.382812 C 206.695312 150.527344 206.492188 150.695312 206.304688 150.882812 C 206.121094 151.066406 205.953125 151.269531 205.808594 151.488281 C 205.660156 151.707031 205.539062 151.9375 205.4375 152.183594 C 205.335938 152.425781 205.261719 152.675781 205.210938 152.933594 C 205.160156 153.191406 205.132812 153.453125 205.132812 153.714844 L 205.132812 192.351562 L 169.878906 192.351562 L 169.878906 153.714844 C 169.878906 153.453125 169.855469 153.191406 169.800781 152.933594 C 169.75 152.675781 169.675781 152.425781 169.574219 152.183594 C 169.472656 151.9375 169.351562 151.707031 169.203125 151.488281 C 169.058594 151.269531 168.890625 151.066406 168.703125 150.882812 C 168.519531 150.695312 168.316406 150.527344 168.097656 150.382812 C 167.878906 150.234375 167.648438 150.113281 167.402344 150.011719 C 167.160156 149.910156 166.910156 149.835938 166.652344 149.785156 C 166.394531 149.730469 166.132812 149.707031 165.871094 149.707031 L 127.238281 149.707031 Z M 127.238281 114.4375 " fill-opacity="1" fill-rule="nonzero"/></g></svg>