<svg xmlns="http://www.w3.org/2000/svg" xmlns:xlink="http://www.w3.org/1999/xlink" width="5000" zoomAndPan="magnify" viewBox="0 0 3750 3749.999967" height="5000" preserveAspectRatio="xMidYMid meet" version="1.0"><defs><clipPath id="86b797ac3c"><path d="M 155.964844 640.355469 L 2467 640.355469 L 2467 3132.710938 L 155.964844 3132.710938 Z M 155.964844 640.355469 " clip-rule="nonzero"/></clipPath></defs><g clip-path="url(#86b797ac3c)"><path fill="#ffffff" d="M 894.527344 2117.742188 L 368.179688 1510.4375 C 199.71875 1316.300781 220.675781 1021.03125 415.078125 852.832031 C 609.476562 684.371094 904.484375 705.328125 1072.683594 899.730469 L 1599.292969 1507.03125 Z M 2328.421875 2198.4375 L 1147.089844 835.277344 C 942.734375 599.746094 586.421875 574.332031 350.886719 778.425781 C 115.09375 982.78125 89.679688 1339.09375 293.773438 1574.890625 L 1475.367188 2937.785156 C 1679.460938 3173.582031 2036.039062 3198.992188 2271.570312 2994.636719 C 2507.105469 2790.542969 2532.515625 2433.96875 2328.421875 2198.4375 " fill-opacity="1" fill-rule="nonzero"/></g><path fill="#ffffff" d="M 3008.039062 2670.027344 C 3000.175781 2675.003906 2991.269531 2677.363281 2982.625 2677.363281 C 2966.117188 2677.363281 2949.875 2668.980469 2940.703125 2653.78125 L 2325.542969 1649.296875 C 2311.394531 1625.976562 2318.730469 1595.847656 2341.785156 1581.699219 C 2364.839844 1567.554688 2395.230469 1574.890625 2409.378906 1597.945312 L 3024.28125 2602.695312 C 3038.429688 2625.75 3031.09375 2655.878906 3008.039062 2670.027344 Z M 3386.621094 1690.167969 C 3146.109375 1297.175781 2632.335938 1173.777344 2239.34375 1414.285156 C 2120.136719 1487.121094 2026.34375 1585.367188 1959.273438 1697.503906 L 2365.625 2166.210938 C 2552.167969 2381.832031 2561.074219 2691.25 2406.496094 2915.777344 C 2633.125 2992.542969 2890.664062 2972.105469 3110.476562 2837.703125 C 3503.730469 2596.929688 3627.128906 2083.421875 3386.621094 1690.167969 " fill-opacity="1" fill-rule="nonzero"/></svg>