<svg xmlns="http://www.w3.org/2000/svg" xmlns:xlink="http://www.w3.org/1999/xlink" width="5000" zoomAndPan="magnify" viewBox="0 0 3750 3749.999967" height="5000" preserveAspectRatio="xMidYMid meet" version="1.0"><defs><g/><clipPath id="10631d3842"><path d="M 1455 2617 L 2554 2617 L 2554 2746.867188 L 1455 2746.867188 Z M 1455 2617 " clip-rule="nonzero"/></clipPath><clipPath id="e38732b2c6"><path d="M 1455 2617 L 2554 2617 L 2554 2746.867188 L 1455 2746.867188 Z M 1455 2617 " clip-rule="nonzero"/></clipPath><clipPath id="7d78b1b30b"><path d="M 1724 1003.117188 L 2155 1003.117188 L 2155 1144 L 1724 1144 Z M 1724 1003.117188 " clip-rule="nonzero"/></clipPath><clipPath id="d71aa36789"><path d="M 938 2488 L 1456 2488 L 1456 2746.867188 L 938 2746.867188 Z M 938 2488 " clip-rule="nonzero"/></clipPath><clipPath id="8d66b88244"><path d="M 938 2488 L 1456 2488 L 1456 2746.867188 L 938 2746.867188 Z M 938 2488 " clip-rule="nonzero"/></clipPath></defs><g fill="#18442a" fill-opacity="1"><g transform="translate(389.674493, 1604.796342)"><g><path d="M 21.890625 -511.5625 C 50.867188 -492.601562 66.300781 -466.882812 68.1875 -434.40625 C 70.070312 -401.9375 60.226562 -369.21875 38.65625 -336.25 L -44.453125 -209.265625 L 59.53125 -141.21875 C 63.507812 -138.613281 67.800781 -138.035156 72.40625 -139.484375 C 77.007812 -140.941406 82.296875 -144.988281 88.265625 -151.625 L 95.9375 -146.609375 L 28.453125 -43.46875 L 20.78125 -48.484375 C 26.289062 -64.359375 26.203125 -74.15625 20.515625 -77.875 L -242.859375 -250.21875 C -247.398438 -253.1875 -252.066406 -253.804688 -256.859375 -252.078125 C -261.648438 -250.347656 -266.835938 -246.441406 -272.421875 -240.359375 L -280.109375 -245.375 L -140.125 -459.3125 C -118.925781 -491.707031 -93.722656 -513.160156 -64.515625 -523.671875 C -35.316406 -534.191406 -6.515625 -530.15625 21.890625 -511.5625 Z M -17.109375 -448.234375 C -34.722656 -459.753906 -51.820312 -460.59375 -68.40625 -450.75 C -85 -440.90625 -99.613281 -426.328125 -112.25 -407.015625 L -182.53125 -299.625 L -87.9375 -237.71875 L -12.078125 -353.640625 C 1.679688 -374.660156 7.832031 -393.351562 6.375 -409.71875 C 4.925781 -426.09375 -2.898438 -438.929688 -17.109375 -448.234375 Z M -17.109375 -448.234375 "/></g></g></g><g fill="#18442a" fill-opacity="1"><g transform="translate(609.48847, 1250.054397)"><g><path d="M -114.1875 -378.34375 C -124.195312 -365.039062 -126.515625 -355.328125 -121.140625 -349.203125 L -37.078125 -253.5625 L 143.5 -412.265625 L 58.765625 -508.671875 C 56.078125 -511.734375 52.546875 -512.925781 48.171875 -512.25 C 43.796875 -511.570312 37.617188 -509.078125 29.640625 -504.765625 L 23.578125 -511.65625 L 116.171875 -593.03125 L 122.234375 -586.140625 C 116.941406 -578.785156 113.675781 -572.984375 112.4375 -568.734375 C 111.195312 -564.484375 111.921875 -560.828125 114.609375 -557.765625 L 325.09375 -318.28125 C 327.332031 -315.738281 330.398438 -314.820312 334.296875 -315.53125 C 338.191406 -316.238281 344.609375 -318.710938 353.546875 -322.953125 L 359.609375 -316.0625 L 267.015625 -234.6875 L 260.953125 -241.578125 C 266.253906 -248.929688 269.632812 -254.601562 271.09375 -258.59375 C 272.5625 -262.59375 271.945312 -266.125 269.25 -269.1875 L 177.796875 -373.25 L -2.78125 -214.546875 L 88.671875 -110.484375 C 92.703125 -105.898438 102.1875 -107.457031 117.125 -115.15625 L 123.1875 -108.265625 L 30.609375 -26.90625 L 24.546875 -33.796875 C 29.835938 -41.140625 33.097656 -46.9375 34.328125 -51.1875 C 35.566406 -55.445312 34.84375 -59.101562 32.15625 -62.15625 L -177.65625 -300.875 C -180.34375 -303.9375 -183.875 -305.128906 -188.25 -304.453125 C -192.625 -303.773438 -198.796875 -301.285156 -206.765625 -296.984375 L -212.828125 -303.875 L -120.25 -385.234375 Z M -114.1875 -378.34375 "/></g></g></g><g fill="#18442a" fill-opacity="1"><g transform="translate(959.781791, 937.870522)"><g><path d="M 117.53125 -456.34375 C 106.1875 -448.59375 102.140625 -441.351562 105.390625 -434.625 C 106.273438 -432.789062 108.519531 -430.484375 112.125 -427.703125 C 115.738281 -424.921875 118.296875 -422.765625 119.796875 -421.234375 L 374.953125 -212 C 380.671875 -207.976562 385.117188 -205.414062 388.296875 -204.3125 C 391.472656 -203.207031 396.410156 -203.523438 403.109375 -205.265625 L 407.109375 -197.015625 L 306.234375 -148.203125 L 302.234375 -156.453125 C 309.316406 -163.648438 312.117188 -168.773438 310.640625 -171.828125 C 309.753906 -173.660156 307.960938 -175.8125 305.265625 -178.28125 L 236.296875 -234.296875 L 79.5 -158.421875 L 80.65625 -71.859375 C 80.582031 -65.773438 80.988281 -61.816406 81.875 -59.984375 C 83.050781 -57.546875 89.269531 -57.160156 100.53125 -58.828125 L 104.53125 -50.578125 L 12.84375 -6.21875 L 8.84375 -14.46875 C 14.382812 -20.164062 17.929688 -24.519531 19.484375 -27.53125 C 21.035156 -30.550781 21.554688 -35.710938 21.046875 -43.015625 L 18.484375 -371.078125 C 18.515625 -374.097656 18.484375 -378.039062 18.390625 -382.90625 C 18.304688 -387.769531 17.96875 -390.8125 17.375 -392.03125 C 14.71875 -397.53125 6.226562 -398.703125 -8.09375 -395.546875 L -12.09375 -403.796875 L 113.53125 -464.59375 Z M 196.1875 -268.09375 L 76.28125 -368.484375 L 79.734375 -211.734375 Z M 196.1875 -268.09375 "/></g></g></g><g fill="#18442a" fill-opacity="1"><g transform="translate(1330.824712, 746.853551)"><g><path d="M 425.65625 -345.8125 C 431.5 -313.75 425.179688 -286.882812 406.703125 -265.21875 C 388.222656 -243.550781 363.191406 -228.457031 331.609375 -219.9375 L 453.84375 -111.75 C 459.625 -106.601562 464.59375 -103.023438 468.75 -101.015625 C 472.90625 -99.015625 479.113281 -98.078125 487.375 -98.203125 L 489.015625 -89.1875 L 367.78125 -67.078125 L 366.140625 -76.09375 C 375.003906 -80.46875 379.070312 -84.660156 378.34375 -88.671875 C 378.21875 -89.335938 376.9375 -90.65625 374.5 -92.625 C 372.0625 -94.59375 370.390625 -96.1875 369.484375 -97.40625 L 248.4375 -204.765625 L 111.15625 -179.734375 L 134.734375 -50.46875 C 135.953125 -43.78125 144.9375 -39.890625 161.6875 -38.796875 L 163.328125 -29.78125 L 42.09375 -7.671875 L 40.453125 -16.6875 C 55.753906 -23.625 62.796875 -30.4375 61.578125 -37.125 L 4.546875 -349.765625 C 3.816406 -353.773438 1.40625 -356.613281 -2.6875 -358.28125 C -6.789062 -359.957031 -13.367188 -361 -22.421875 -361.40625 L -24.0625 -370.4375 L 263.53125 -422.890625 C 309.632812 -431.296875 346.75 -428.398438 374.875 -414.203125 C 403 -400.003906 419.925781 -377.207031 425.65625 -345.8125 Z M 347.671875 -330.546875 C 344.753906 -346.578125 336.5625 -358.367188 323.09375 -365.921875 C 309.632812 -373.484375 294.222656 -375.679688 276.859375 -372.515625 L 82.453125 -337.0625 L 101.828125 -230.84375 L 292.21875 -265.5625 C 309.59375 -268.726562 324 -275.835938 335.4375 -286.890625 C 346.882812 -297.953125 350.960938 -312.503906 347.671875 -330.546875 Z M 347.671875 -330.546875 "/></g></g></g><g fill="#18442a" fill-opacity="1"><g transform="translate(1782.846544, 642.626169)"><g><path d="M 261.671875 -325.140625 C 243.609375 -323.660156 234.285156 -320.90625 233.703125 -316.875 C 233.503906 -315.519531 234.976562 -311.53125 238.125 -304.90625 L 344.9375 -63.828125 L 518.328125 -263.921875 C 524.109375 -270.628906 527.144531 -274.988281 527.4375 -277 C 527.925781 -280.351562 521.988281 -284.3125 509.625 -288.875 L 510.953125 -297.953125 L 648.03125 -277.90625 L 646.703125 -268.828125 C 637.671875 -268.097656 631.160156 -266.992188 627.171875 -265.515625 C 623.179688 -264.035156 620.890625 -261.28125 620.296875 -257.25 L 574.171875 58.21875 C 573.679688 61.582031 574.75 64.828125 577.375 67.953125 C 580 71.085938 586.207031 74.398438 596 77.890625 L 594.671875 86.96875 L 472.71875 69.125 L 474.046875 60.046875 C 482.398438 59.210938 488.738281 58.082031 493.0625 56.65625 C 497.394531 55.238281 499.90625 52.175781 500.59375 47.46875 L 537.140625 -202.5 L 321.390625 48.015625 L 186.53125 -254.796875 L 149.828125 -3.828125 C 149.335938 -0.460938 150.40625 2.78125 153.03125 5.90625 C 155.664062 9.039062 161.878906 12.347656 171.671875 15.828125 L 170.34375 24.90625 L 67.53125 9.875 L 68.859375 0.796875 C 85.484375 -0.203125 94.285156 -4.066406 95.265625 -10.796875 L 141.546875 -327.265625 C 142.046875 -330.628906 140.757812 -333.5625 137.6875 -336.0625 C 134.613281 -338.5625 128.570312 -341.847656 119.5625 -345.921875 L 120.890625 -355 L 263 -334.21875 Z M 261.671875 -325.140625 "/></g></g></g><g fill="#18442a" fill-opacity="1"><g transform="translate(2385.272301, 737.447107)"><g><path d="M 431.84375 -188.578125 C 418.757812 -192.742188 410.570312 -191.472656 407.28125 -184.765625 C 406.382812 -182.941406 405.953125 -179.75 405.984375 -175.1875 C 406.015625 -170.632812 405.882812 -167.296875 405.59375 -165.171875 L 397.984375 164.71875 C 398.347656 171.695312 399.070312 176.773438 400.15625 179.953125 C 401.25 183.140625 404.546875 186.835938 410.046875 191.046875 L 406 199.28125 L 305.40625 149.90625 L 309.453125 141.671875 C 319.484375 142.804688 325.25 141.851562 326.75 138.8125 C 327.644531 136.988281 328.226562 134.253906 328.5 130.609375 L 330.140625 41.765625 L 173.765625 -34.984375 L 106.296875 19.25 C 101.453125 22.9375 98.582031 25.695312 97.6875 27.53125 C 96.488281 29.957031 100.023438 35.09375 108.296875 42.9375 L 104.25 51.171875 L 12.8125 6.28125 L 16.859375 -1.953125 C 24.753906 -1.097656 30.367188 -0.984375 33.703125 -1.609375 C 37.035156 -2.242188 41.414062 -5.015625 46.84375 -9.921875 L 303.65625 -214.0625 C 306.0625 -215.914062 309.148438 -218.367188 312.921875 -221.421875 C 316.691406 -224.484375 318.878906 -226.625 319.484375 -227.84375 C 322.171875 -233.332031 317.863281 -240.742188 306.5625 -250.078125 L 310.59375 -258.3125 L 435.875 -196.8125 Z M 332.03125 -10.640625 L 337.25 -166.9375 L 215.890625 -67.640625 Z M 332.03125 -10.640625 "/></g></g></g><g fill="#18442a" fill-opacity="1"><g transform="translate(2766.402576, 931.954272)"><g><path d="M 146.90625 17.640625 C 156.070312 24.660156 161.410156 33.882812 162.921875 45.3125 C 164.429688 56.738281 161.675781 67.035156 154.65625 76.203125 C 147.632812 85.359375 138.40625 90.691406 126.96875 92.203125 C 115.539062 93.710938 105.242188 90.957031 96.078125 83.9375 C 86.921875 76.914062 81.585938 67.6875 80.078125 56.25 C 78.578125 44.820312 81.335938 34.53125 88.359375 25.375 C 95.378906 16.207031 104.601562 10.867188 116.03125 9.359375 C 127.457031 7.859375 137.75 10.617188 146.90625 17.640625 Z M 146.90625 17.640625 "/></g></g></g><g fill="#18442a" fill-opacity="1"><g transform="translate(2948.045823, 1053.372237)"><g><path d="M 471.171875 -7.671875 C 460.703125 -16.554688 452.648438 -18.535156 447.015625 -13.609375 C 445.492188 -12.265625 443.867188 -9.484375 442.140625 -5.265625 C 440.410156 -1.054688 439.003906 1.972656 437.921875 3.828125 L 303.828125 305.328125 C 301.472656 311.898438 300.179688 316.863281 299.953125 320.21875 C 299.734375 323.582031 301.351562 328.257812 304.8125 334.25 L 297.90625 340.296875 L 224.09375 255.984375 L 231 249.9375 C 239.8125 254.863281 245.492188 256.207031 248.046875 253.96875 C 249.578125 252.625 251.175781 250.328125 252.84375 247.078125 L 288.5625 165.71875 L 173.828125 34.65625 L 90.671875 58.71875 C 84.785156 60.25 81.078125 61.6875 79.546875 63.03125 C 77.503906 64.820312 78.785156 70.921875 83.390625 81.328125 L 76.484375 87.375 L 9.390625 10.734375 L 16.296875 4.6875 C 23.265625 8.507812 28.40625 10.769531 31.71875 11.46875 C 35.039062 12.175781 40.15625 11.316406 47.0625 8.890625 L 362.6875 -80.578125 C 365.613281 -81.347656 369.40625 -82.421875 374.0625 -83.796875 C 378.726562 -85.171875 381.570312 -86.304688 382.59375 -87.203125 C 387.195312 -91.222656 386.078125 -99.71875 379.234375 -112.6875 L 386.140625 -118.734375 L 478.078125 -13.71875 Z M 310.5 118.078125 L 375.53125 -24.15625 L 225.28125 20.734375 Z M 310.5 118.078125 "/></g></g></g><g fill="#18442a" fill-opacity="1"><g transform="translate(3224.842128, 1379.681857)"><g><path d="M 406.171875 -14.796875 C 400.347656 -20.847656 395.535156 -25.132812 391.734375 -27.65625 C 387.929688 -30.175781 383.972656 -30.25 379.859375 -27.875 L 104.265625 130.40625 C 98.378906 133.789062 97.734375 143.566406 102.328125 159.734375 L 94.375 164.296875 L 32.984375 57.421875 L 40.9375 52.859375 C 52 65.285156 60.765625 69.640625 67.234375 65.921875 L 342.828125 -92.359375 C 346.359375 -94.390625 348.222656 -97.617188 348.421875 -102.046875 C 348.628906 -106.472656 347.414062 -113.015625 344.78125 -121.671875 L 352.734375 -126.234375 L 414.125 -19.359375 Z M 406.171875 -14.796875 "/></g></g></g><g fill="#18442a" fill-opacity="1"><g transform="translate(3366.837514, 2262.977293)"><g><path d="M -21.90625 511.671875 C -50.882812 492.703125 -66.3125 466.972656 -68.1875 434.484375 C -70.070312 402.003906 -60.226562 369.285156 -38.65625 336.328125 L 44.453125 209.3125 L -59.546875 141.25 C -63.535156 138.644531 -67.828125 138.066406 -72.421875 139.515625 C -77.023438 140.972656 -82.3125 145.019531 -88.28125 151.65625 L -95.953125 146.640625 L -28.453125 43.484375 L -20.78125 48.5 C -26.300781 64.382812 -26.21875 74.1875 -20.53125 77.90625 L 242.90625 250.28125 C 247.457031 253.257812 252.128906 253.878906 256.921875 252.140625 C 261.710938 250.398438 266.90625 246.492188 272.5 240.421875 L 280.171875 245.4375 L 140.140625 459.421875 C 118.941406 491.816406 93.738281 513.273438 64.53125 523.796875 C 35.332031 534.316406 6.519531 530.273438 -21.90625 511.671875 Z M 17.125 448.328125 C 34.738281 459.847656 51.835938 460.6875 68.421875 450.84375 C 85.015625 441.007812 99.632812 426.425781 112.28125 407.09375 L 182.5625 299.6875 L 87.921875 237.765625 L 12.0625 353.703125 C -1.695312 374.722656 -7.84375 393.421875 -6.375 409.796875 C -4.914062 426.179688 2.914062 439.023438 17.125 448.328125 Z M 17.125 448.328125 "/></g></g></g><g fill="#18442a" fill-opacity="1"><g transform="translate(3146.930887, 2617.847166)"><g><path d="M 114.21875 378.421875 C 124.21875 365.109375 126.53125 355.394531 121.15625 349.28125 L 37.078125 253.625 L -143.53125 412.359375 L -58.78125 508.78125 C -56.09375 511.832031 -52.5625 513.019531 -48.1875 512.34375 C -43.8125 511.664062 -37.632812 509.175781 -29.65625 504.875 L -23.59375 511.765625 L -116.1875 593.15625 L -122.25 586.265625 C -116.96875 578.910156 -113.707031 573.101562 -112.46875 568.84375 C -111.226562 564.59375 -111.953125 560.941406 -114.640625 557.890625 L -325.171875 318.34375 C -327.410156 315.800781 -330.476562 314.882812 -334.375 315.59375 C -338.269531 316.300781 -344.679688 318.773438 -353.609375 323.015625 L -359.671875 316.125 L -267.078125 234.734375 L -261.015625 241.625 C -266.316406 248.976562 -269.695312 254.65625 -271.15625 258.65625 C -272.613281 262.65625 -272 266.179688 -269.3125 269.234375 L -177.84375 373.3125 L 2.765625 214.578125 L -88.703125 110.5 C -92.734375 105.914062 -102.210938 107.472656 -117.140625 115.171875 L -123.203125 108.28125 L -30.609375 26.90625 L -24.546875 33.796875 C -29.847656 41.148438 -33.113281 46.953125 -34.34375 51.203125 C -35.570312 55.460938 -34.84375 59.117188 -32.15625 62.171875 L 177.703125 300.953125 C 180.390625 304.003906 183.914062 305.191406 188.28125 304.515625 C 192.65625 303.835938 198.832031 301.347656 206.8125 297.046875 L 212.875 303.9375 L 120.28125 385.3125 Z M 114.21875 378.421875 "/></g></g></g><g fill="#18442a" fill-opacity="1"><g transform="translate(2796.504439, 2930.134665)"><g><path d="M -117.5625 456.4375 C -106.21875 448.6875 -102.171875 441.445312 -105.421875 434.71875 C -106.304688 432.894531 -108.550781 430.585938 -112.15625 427.796875 C -115.769531 425.015625 -118.332031 422.851562 -119.84375 421.3125 L -375.03125 212.046875 C -380.75 208.023438 -385.195312 205.457031 -388.375 204.34375 C -391.5625 203.238281 -396.503906 203.554688 -403.203125 205.296875 L -407.203125 197.046875 L -306.3125 148.234375 L -302.3125 156.484375 C -309.394531 163.679688 -312.195312 168.804688 -310.71875 171.859375 C -309.832031 173.703125 -308.039062 175.859375 -305.34375 178.328125 L -236.34375 234.359375 L -79.515625 158.46875 L -80.671875 71.859375 C -80.597656 65.773438 -81.003906 61.820312 -81.890625 60 C -83.066406 57.550781 -89.289062 57.164062 -100.5625 58.84375 L -104.5625 50.59375 L -12.84375 6.21875 L -8.84375 14.46875 C -14.382812 20.164062 -17.929688 24.519531 -19.484375 27.53125 C -21.046875 30.550781 -21.570312 35.710938 -21.0625 43.015625 L -18.46875 371.140625 C -18.507812 374.179688 -18.484375 378.128906 -18.390625 382.984375 C -18.304688 387.847656 -17.96875 390.890625 -17.375 392.109375 C -14.71875 397.617188 -6.234375 398.796875 8.078125 395.640625 L 12.078125 403.90625 L -113.5625 464.703125 Z M -196.21875 268.140625 L -76.328125 368.578125 L -79.75 211.78125 Z M -196.21875 268.140625 "/></g></g></g><g fill="#18442a" fill-opacity="1"><g transform="translate(2425.316125, 3121.212814)"><g><path d="M -425.75 345.890625 C -431.59375 313.816406 -425.269531 286.941406 -406.78125 265.265625 C -388.300781 243.597656 -363.265625 228.503906 -331.671875 219.984375 L -453.9375 111.78125 C -459.71875 106.625 -464.6875 103.039062 -468.84375 101.03125 C -473.007812 99.03125 -479.222656 98.09375 -487.484375 98.21875 L -489.125 89.203125 L -367.84375 67.09375 L -366.203125 76.109375 C -375.078125 80.484375 -379.148438 84.675781 -378.421875 88.6875 C -378.296875 89.351562 -377.015625 90.671875 -374.578125 92.640625 C -372.148438 94.617188 -370.476562 96.210938 -369.5625 97.421875 L -248.484375 204.8125 L -111.171875 179.765625 L -134.765625 50.46875 C -135.984375 43.78125 -144.972656 39.894531 -161.734375 38.8125 L -163.375 29.796875 L -42.109375 7.671875 L -40.46875 16.6875 C -55.769531 23.625 -62.8125 30.4375 -61.59375 37.125 L -4.546875 349.84375 C -3.816406 353.851562 -1.398438 356.6875 2.703125 358.34375 C 6.804688 360.007812 13.378906 361.054688 22.421875 361.484375 L 24.0625 370.515625 L -263.59375 422.984375 C -309.695312 431.390625 -346.816406 428.488281 -374.953125 414.28125 C -403.085938 400.082031 -420.019531 377.285156 -425.75 345.890625 Z M -347.765625 330.609375 C -344.835938 346.640625 -336.640625 358.4375 -323.171875 366 C -309.710938 373.5625 -294.296875 375.757812 -276.921875 372.59375 L -82.484375 337.125 L -101.859375 230.875 L -292.296875 265.609375 C -309.660156 268.773438 -324.066406 275.890625 -335.515625 286.953125 C -346.972656 298.015625 -351.054688 312.566406 -347.765625 330.609375 Z M -347.765625 330.609375 "/></g></g></g><g fill="#18442a" fill-opacity="1"><g transform="translate(1973.115264, 3225.462259)"><g><path d="M -261.734375 325.203125 C -243.671875 323.734375 -234.347656 320.984375 -233.765625 316.953125 C -233.566406 315.597656 -235.039062 311.597656 -238.1875 304.953125 L -345 63.84375 L -518.4375 263.96875 C -524.226562 270.6875 -527.269531 275.050781 -527.5625 277.0625 C -528.050781 280.414062 -522.109375 284.375 -509.734375 288.9375 L -511.0625 298 L -648.171875 277.953125 L -646.84375 268.890625 C -637.800781 268.148438 -631.285156 267.039062 -627.296875 265.5625 C -623.304688 264.09375 -621.015625 261.34375 -620.421875 257.3125 L -574.28125 -58.234375 C -573.789062 -61.597656 -574.859375 -64.84375 -577.484375 -67.96875 C -580.117188 -71.101562 -586.332031 -74.414062 -596.125 -77.90625 L -594.796875 -86.984375 L -472.8125 -69.140625 L -474.140625 -60.0625 C -482.503906 -59.226562 -488.847656 -58.097656 -493.171875 -56.671875 C -497.503906 -55.242188 -500.015625 -52.179688 -500.703125 -47.484375 L -537.265625 202.546875 L -321.453125 -48.03125 L -186.5625 254.859375 L -149.859375 3.828125 C -149.367188 0.460938 -150.4375 -2.78125 -153.0625 -5.90625 C -155.695312 -9.039062 -161.910156 -12.351562 -171.703125 -15.84375 L -170.375 -24.921875 L -67.546875 -9.875 L -68.875 -0.796875 C -85.5 0.191406 -94.300781 4.050781 -95.28125 10.78125 L -141.578125 327.328125 C -142.066406 330.691406 -140.773438 333.625 -137.703125 336.125 C -134.640625 338.632812 -128.601562 341.925781 -119.59375 346 L -120.921875 355.0625 L -263.0625 334.265625 Z M -261.734375 325.203125 "/></g></g></g><g fill="#18442a" fill-opacity="1"><g transform="translate(1370.485001, 3130.596654)"><g><path d="M -431.9375 188.625 C -418.851562 192.78125 -410.664062 191.503906 -407.375 184.796875 C -406.476562 182.972656 -406.046875 179.78125 -406.078125 175.21875 C -406.109375 170.664062 -405.972656 167.328125 -405.671875 165.203125 L -398.09375 -164.734375 C -398.4375 -171.722656 -399.15625 -176.804688 -400.25 -179.984375 C -401.34375 -183.171875 -404.640625 -186.875 -410.140625 -191.09375 L -406.09375 -199.328125 L -305.484375 -149.9375 L -309.53125 -141.703125 C -319.550781 -142.835938 -325.3125 -141.882812 -326.8125 -138.84375 C -327.707031 -137.007812 -328.300781 -134.269531 -328.59375 -130.625 L -330.21875 -41.765625 L -173.8125 35 L -106.3125 -19.265625 C -101.46875 -22.953125 -98.597656 -25.707031 -97.703125 -27.53125 C -96.503906 -29.96875 -100.039062 -35.109375 -108.3125 -42.953125 L -104.265625 -51.1875 L -12.8125 -6.28125 L -16.859375 1.953125 C -24.753906 1.097656 -30.367188 0.984375 -33.703125 1.609375 C -37.046875 2.242188 -41.429688 5.015625 -46.859375 9.921875 L -303.71875 214.109375 C -306.132812 215.941406 -309.226562 218.394531 -313 221.46875 C -316.769531 224.539062 -318.957031 226.679688 -319.5625 227.890625 C -322.25 233.378906 -317.941406 240.789062 -306.640625 250.125 L -310.6875 258.359375 L -435.984375 196.859375 Z M -332.109375 10.640625 L -337.328125 166.96875 L -215.9375 67.65625 Z M -332.109375 10.640625 "/></g></g></g><g fill="#18442a" fill-opacity="1"><g transform="translate(989.2297, 2936.022228)"><g><path d="M -146.9375 -17.65625 C -156.09375 -24.675781 -161.425781 -33.898438 -162.9375 -45.328125 C -164.445312 -56.753906 -161.691406 -67.046875 -154.671875 -76.203125 C -147.648438 -85.367188 -138.421875 -90.707031 -126.984375 -92.21875 C -115.554688 -93.726562 -105.265625 -90.972656 -96.109375 -83.953125 C -86.941406 -76.921875 -81.601562 -67.691406 -80.09375 -56.265625 C -78.59375 -44.835938 -81.351562 -34.539062 -88.375 -25.375 C -95.394531 -16.21875 -104.617188 -10.882812 -116.046875 -9.375 C -127.472656 -7.863281 -137.769531 -10.625 -146.9375 -17.65625 Z M -146.9375 -17.65625 "/></g></g></g><g fill="#18442a" fill-opacity="1"><g transform="translate(807.512546, 2814.541782)"><g><path d="M -471.265625 7.671875 C -460.785156 16.546875 -452.734375 18.523438 -447.109375 13.609375 C -445.578125 12.273438 -443.945312 9.5 -442.21875 5.28125 C -440.5 1.0625 -439.097656 -1.972656 -438.015625 -3.828125 L -303.90625 -305.375 C -301.539062 -311.957031 -300.242188 -316.925781 -300.015625 -320.28125 C -299.796875 -323.644531 -301.414062 -328.328125 -304.875 -334.328125 L -297.96875 -340.375 L -224.140625 -256.046875 L -231.046875 -250 C -239.867188 -254.925781 -245.554688 -256.269531 -248.109375 -254.03125 C -249.648438 -252.6875 -251.25 -250.382812 -252.90625 -247.125 L -288.640625 -165.734375 L -173.875 -34.65625 L -90.6875 -58.71875 C -84.800781 -60.257812 -81.09375 -61.703125 -79.5625 -63.046875 C -77.519531 -64.835938 -78.804688 -70.9375 -83.421875 -81.34375 L -76.515625 -87.390625 L -9.390625 -10.734375 L -16.296875 -4.6875 C -23.265625 -8.507812 -28.40625 -10.773438 -31.71875 -11.484375 C -35.039062 -12.191406 -40.15625 -11.332031 -47.0625 -8.90625 L -362.75 80.59375 C -365.6875 81.363281 -369.488281 82.429688 -374.15625 83.796875 C -378.820312 85.171875 -381.664062 86.304688 -382.6875 87.203125 C -387.289062 91.234375 -386.171875 99.734375 -379.328125 112.703125 L -386.234375 118.75 L -478.171875 13.71875 Z M -310.578125 -118.09375 L -375.625 24.15625 L -225.34375 -20.734375 Z M -310.578125 -118.09375 "/></g></g></g><g fill="#18442a" fill-opacity="1"><g transform="translate(530.626522, 2488.122924)"><g><path d="M -406.265625 14.796875 C -400.429688 20.859375 -395.617188 25.144531 -391.828125 27.65625 C -388.035156 30.175781 -384.078125 30.253906 -379.953125 27.890625 L -104.296875 -130.4375 C -98.410156 -133.820312 -97.757812 -143.597656 -102.34375 -159.765625 L -94.390625 -164.328125 L -32.984375 -57.421875 L -40.9375 -52.859375 C -52 -65.296875 -60.765625 -69.65625 -67.234375 -65.9375 L -342.890625 92.390625 C -346.421875 94.421875 -348.285156 97.644531 -348.484375 102.0625 C -348.691406 106.488281 -347.484375 113.035156 -344.859375 121.703125 L -352.8125 126.28125 L -414.21875 19.375 Z M -406.265625 14.796875 "/></g></g></g><path fill="#d2dbda" d="M 2230.203125 2488.535156 L 1778.117188 2488.535156 L 1778.117188 2617.703125 L 2230.203125 2617.703125 L 2230.203125 2488.535156 " fill-opacity="1" fill-rule="nonzero"/><g clip-path="url(#10631d3842)"><path fill="#ecf5f4" d="M 2553.117188 2746.867188 L 1455.203125 2746.867188 L 1455.203125 2682.285156 C 1455.203125 2646.585938 1484.085938 2617.703125 1519.785156 2617.703125 L 2488.535156 2617.703125 C 2524.234375 2617.703125 2553.117188 2646.585938 2553.117188 2682.285156 L 2553.117188 2746.867188 " fill-opacity="1" fill-rule="nonzero"/></g><path fill="#90d9f5" d="M 2746.867188 2488.535156 L 1261.453125 2488.535156 C 1225.753906 2488.535156 1196.867188 2459.648438 1196.867188 2423.953125 L 1196.867188 1455.203125 C 1196.867188 1419.503906 1225.753906 1390.617188 1261.453125 1390.617188 L 2746.867188 1390.617188 C 2782.566406 1390.617188 2811.453125 1419.503906 2811.453125 1455.203125 L 2811.453125 2423.953125 C 2811.453125 2459.648438 2782.566406 2488.535156 2746.867188 2488.535156 " fill-opacity="1" fill-rule="nonzero"/><path fill="#6dbbea" d="M 2811.453125 2197.910156 L 2811.453125 2423.953125 C 2811.453125 2459.523438 2782.441406 2488.535156 2746.867188 2488.535156 L 1261.453125 2488.535156 C 1225.878906 2488.535156 1196.867188 2459.523438 1196.867188 2423.953125 L 1196.867188 1455.203125 C 1196.867188 1419.628906 1225.878906 1390.617188 1261.453125 1390.617188 L 1745.828125 1390.617188 L 1745.828125 1778.117188 C 1745.828125 2009.960938 1933.773438 2197.910156 2165.617188 2197.910156 L 2811.453125 2197.910156 " fill-opacity="1" fill-rule="nonzero"/><path fill="#8f9697" d="M 2230.203125 2488.535156 L 1778.117188 2488.535156 L 1778.117188 2617.703125 Z M 2230.203125 2488.535156 " fill-opacity="1" fill-rule="nonzero"/><g clip-path="url(#e38732b2c6)"><path fill="#d2dbda" d="M 2553.117188 2682.285156 L 2553.117188 2746.867188 L 1455.203125 2746.867188 L 1455.203125 2682.285156 C 1455.203125 2646.714844 1484.214844 2617.703125 1519.785156 2617.703125 L 1552.078125 2617.703125 C 1552.078125 2653.273438 1581.089844 2682.285156 1616.660156 2682.285156 L 2553.117188 2682.285156 " fill-opacity="1" fill-rule="nonzero"/></g><path fill="#95d221" d="M 2682.285156 2488.535156 L 2101.035156 2488.535156 L 2101.035156 2133.328125 C 2101.035156 2079.84375 2144.425781 2036.453125 2197.910156 2036.453125 L 2585.410156 2036.453125 C 2638.894531 2036.453125 2682.285156 2079.84375 2682.285156 2133.328125 L 2682.285156 2488.535156 " fill-opacity="1" fill-rule="nonzero"/><path fill="#6cc02e" d="M 2423.953125 2359.367188 C 2412.976562 2359.367188 2402.253906 2358.234375 2391.660156 2356.46875 L 2391.660156 2036.453125 L 2327.078125 2036.453125 L 2327.078125 2333.132812 C 2269.304688 2299.578125 2230.203125 2237.140625 2230.203125 2165.617188 L 2230.203125 2036.453125 L 2197.910156 2036.453125 C 2144.300781 2036.453125 2101.035156 2079.71875 2101.035156 2133.328125 L 2101.035156 2488.535156 L 2682.285156 2488.535156 L 2682.285156 2359.367188 L 2423.953125 2359.367188 " fill-opacity="1" fill-rule="nonzero"/><path fill="#6cc02e" d="M 2682.285156 2197.910156 L 2682.285156 2488.535156 L 2101.035156 2488.535156 L 2101.035156 2193.117188 C 2121.972656 2196.269531 2143.671875 2197.910156 2165.617188 2197.910156 L 2682.285156 2197.910156 " fill-opacity="1" fill-rule="nonzero"/><path fill="#50a536" d="M 2423.953125 2359.367188 C 2412.976562 2359.367188 2402.253906 2358.234375 2391.660156 2356.46875 L 2391.660156 2197.910156 L 2327.078125 2197.910156 L 2327.078125 2333.132812 C 2278.132812 2304.75 2242.941406 2255.683594 2233.230469 2197.910156 L 2165.617188 2197.910156 C 2143.542969 2197.910156 2122.101562 2195.640625 2101.035156 2192.484375 L 2101.035156 2488.535156 L 2682.285156 2488.535156 L 2682.285156 2359.367188 L 2423.953125 2359.367188 " fill-opacity="1" fill-rule="nonzero"/><path fill="#b9de23" d="M 2359.367188 2488.535156 L 2359.367188 2133.328125 C 2359.367188 2115.542969 2373.875 2101.035156 2391.660156 2101.035156 C 2409.445312 2101.035156 2423.953125 2115.542969 2423.953125 2133.328125 L 2423.953125 2488.535156 L 2359.367188 2488.535156 " fill-opacity="1" fill-rule="nonzero"/><path fill="#b9de23" d="M 2553.117188 2230.203125 C 2553.117188 2247.988281 2538.613281 2262.492188 2520.828125 2262.492188 C 2503.042969 2262.492188 2488.535156 2247.988281 2488.535156 2230.203125 C 2488.535156 2212.417969 2503.042969 2197.910156 2520.828125 2197.910156 C 2538.613281 2197.910156 2553.117188 2212.417969 2553.117188 2230.203125 " fill-opacity="1" fill-rule="nonzero"/><path fill="#b9de23" d="M 2553.117188 2359.367188 C 2553.117188 2377.152344 2538.613281 2391.660156 2520.828125 2391.660156 C 2503.042969 2391.660156 2488.535156 2377.152344 2488.535156 2359.367188 C 2488.535156 2341.582031 2503.042969 2327.078125 2520.828125 2327.078125 C 2538.613281 2327.078125 2553.117188 2341.582031 2553.117188 2359.367188 " fill-opacity="1" fill-rule="nonzero"/><path fill="#95d221" d="M 2585.410156 1713.535156 L 2197.910156 1713.535156 L 2197.910156 1648.953125 C 2197.910156 1577.558594 2255.683594 1519.785156 2327.078125 1519.785156 L 2456.242188 1519.785156 C 2527.636719 1519.785156 2585.410156 1577.558594 2585.410156 1648.953125 L 2585.410156 1713.535156 " fill-opacity="1" fill-rule="nonzero"/><path fill="#6cc02e" d="M 2585.410156 1648.953125 L 2585.410156 1713.535156 L 2197.910156 1713.535156 L 2197.910156 1648.953125 C 2197.910156 1577.558594 2255.683594 1519.785156 2327.078125 1519.785156 L 2365.171875 1519.785156 C 2361.261719 1529.75 2359.367188 1540.722656 2359.367188 1552.078125 C 2359.367188 1605.6875 2402.632812 1648.953125 2456.242188 1648.953125 L 2585.410156 1648.953125 " fill-opacity="1" fill-rule="nonzero"/><path fill="#50a536" d="M 2456.242188 1648.953125 C 2438.457031 1648.953125 2423.953125 1634.445312 2423.953125 1616.660156 C 2423.953125 1598.875 2409.445312 1584.367188 2391.660156 1584.367188 C 2373.875 1584.367188 2359.367188 1598.875 2359.367188 1616.660156 C 2359.367188 1634.445312 2344.863281 1648.953125 2327.078125 1648.953125 C 2309.292969 1648.953125 2294.785156 1634.445312 2294.785156 1616.660156 C 2294.785156 1563.175781 2338.175781 1519.785156 2391.660156 1519.785156 C 2445.144531 1519.785156 2488.535156 1563.175781 2488.535156 1616.660156 C 2488.535156 1634.445312 2474.027344 1648.953125 2456.242188 1648.953125 " fill-opacity="1" fill-rule="nonzero"/><path fill="#f7b60b" d="M 2391.660156 2165.617188 C 2338.175781 2165.617188 2294.785156 2122.226562 2294.785156 2068.742188 L 2294.785156 1971.867188 L 2488.535156 1971.867188 L 2488.535156 2068.742188 C 2488.535156 2122.226562 2445.144531 2165.617188 2391.660156 2165.617188 " fill-opacity="1" fill-rule="nonzero"/><path fill="#e48e1e" d="M 2347.386719 2067.734375 C 2378.414062 2088.800781 2415.878906 2101.035156 2456.242188 2101.035156 C 2465.578125 2101.035156 2474.660156 2100.40625 2483.363281 2098.765625 C 2471.128906 2137.488281 2434.671875 2165.617188 2391.660156 2165.617188 C 2338.050781 2165.617188 2294.785156 2122.351562 2294.785156 2068.742188 L 2294.785156 1971.867188 L 2488.535156 1971.867188 L 2488.535156 1981.832031 C 2457.503906 2029.011719 2406.542969 2061.679688 2347.386719 2067.734375 " fill-opacity="1" fill-rule="nonzero"/><path fill="#f3e306" d="M 2391.660156 2036.453125 C 2284.695312 2036.453125 2197.910156 1949.667969 2197.910156 1842.703125 L 2197.910156 1713.535156 L 2585.410156 1713.535156 L 2585.410156 1842.703125 C 2585.410156 1949.667969 2498.625 2036.453125 2391.660156 2036.453125 " fill-opacity="1" fill-rule="nonzero"/><path fill="#f7b60b" d="M 2262.492188 1810.410156 C 2262.492188 1917.25 2349.402344 2004.160156 2456.242188 2004.160156 C 2474.660156 2004.160156 2492.066406 2001.511719 2508.84375 1996.71875 C 2476.550781 2021.945312 2435.933594 2036.453125 2391.660156 2036.453125 C 2284.820312 2036.453125 2197.910156 1949.542969 2197.910156 1842.703125 L 2197.910156 1713.535156 L 2585.410156 1713.535156 L 2585.410156 1778.117188 L 2294.785156 1778.117188 C 2277 1778.117188 2262.492188 1792.625 2262.492188 1810.410156 " fill-opacity="1" fill-rule="nonzero"/><path fill="#6dbbea" d="M 2359.367188 1842.703125 C 2359.367188 1860.488281 2344.863281 1874.992188 2327.078125 1874.992188 C 2309.292969 1874.992188 2294.785156 1860.488281 2294.785156 1842.703125 C 2294.785156 1824.917969 2309.292969 1810.410156 2327.078125 1810.410156 C 2344.863281 1810.410156 2359.367188 1824.917969 2359.367188 1842.703125 " fill-opacity="1" fill-rule="nonzero"/><path fill="#6dbbea" d="M 2488.535156 1842.703125 C 2488.535156 1860.488281 2474.027344 1874.992188 2456.242188 1874.992188 C 2438.457031 1874.992188 2423.953125 1860.488281 2423.953125 1842.703125 C 2423.953125 1824.917969 2438.457031 1810.410156 2456.242188 1810.410156 C 2474.027344 1810.410156 2488.535156 1824.917969 2488.535156 1842.703125 " fill-opacity="1" fill-rule="nonzero"/><path fill="#95d221" d="M 2520.828125 2391.660156 C 2538.613281 2391.660156 2553.117188 2377.152344 2553.117188 2359.367188 L 2488.535156 2359.367188 C 2488.535156 2377.152344 2503.042969 2391.660156 2520.828125 2391.660156 " fill-opacity="1" fill-rule="nonzero"/><path fill="#95d221" d="M 2423.953125 2359.367188 L 2423.953125 2488.535156 L 2359.367188 2488.535156 L 2359.367188 2348.015625 C 2379.675781 2355.457031 2401.371094 2359.367188 2423.953125 2359.367188 " fill-opacity="1" fill-rule="nonzero"/><path fill="#8f9697" d="M 1778.117188 2036.453125 L 1778.117188 2101.035156 C 1778.117188 2154.519531 1734.726562 2197.910156 1681.242188 2197.910156 L 1648.953125 2197.910156 C 1631.164062 2197.910156 1616.660156 2212.417969 1616.660156 2230.203125 C 1616.660156 2247.988281 1631.164062 2262.492188 1648.953125 2262.492188 L 1874.992188 2262.492188 C 1892.777344 2262.492188 1907.285156 2277 1907.285156 2294.785156 C 1907.285156 2312.570312 1892.777344 2327.078125 1874.992188 2327.078125 L 1648.953125 2327.078125 C 1595.46875 2327.078125 1552.078125 2283.683594 1552.078125 2230.203125 C 1552.078125 2176.71875 1595.46875 2133.328125 1648.953125 2133.328125 L 1681.242188 2133.328125 C 1699.027344 2133.328125 1713.535156 2118.820312 1713.535156 2101.035156 L 1713.535156 2036.453125 L 1778.117188 2036.453125 " fill-opacity="1" fill-rule="nonzero"/><path fill="#ecf5f4" d="M 1745.828125 2068.742188 C 1567.71875 2068.742188 1422.910156 1923.9375 1422.910156 1745.828125 L 1422.910156 1584.367188 C 1422.910156 1566.582031 1437.414062 1552.078125 1455.203125 1552.078125 L 1519.785156 1552.078125 C 1537.570312 1552.078125 1552.078125 1566.582031 1552.078125 1584.367188 C 1552.078125 1602.15625 1537.570312 1616.660156 1519.785156 1616.660156 L 1487.492188 1616.660156 L 1487.492188 1745.828125 C 1487.492188 1888.238281 1603.414062 2004.160156 1745.828125 2004.160156 C 1888.238281 2004.160156 2004.160156 1888.238281 2004.160156 1745.828125 L 2004.160156 1616.660156 L 1971.867188 1616.660156 C 1954.082031 1616.660156 1939.578125 1602.15625 1939.578125 1584.367188 C 1939.578125 1566.582031 1954.082031 1552.078125 1971.867188 1552.078125 L 2036.453125 1552.078125 C 2054.238281 1552.078125 2068.742188 1566.582031 2068.742188 1584.367188 L 2068.742188 1745.828125 C 2068.742188 1923.9375 1923.933594 2068.742188 1745.828125 2068.742188 " fill-opacity="1" fill-rule="nonzero"/><path fill="#f3e306" d="M 1907.285156 1681.242188 L 1810.410156 1681.242188 L 1810.410156 1584.367188 L 1681.242188 1584.367188 L 1681.242188 1681.242188 L 1584.367188 1681.242188 L 1584.367188 1810.410156 L 1681.242188 1810.410156 L 1681.242188 1907.285156 L 1810.410156 1907.285156 L 1810.410156 1810.410156 L 1907.285156 1810.410156 L 1907.285156 1681.242188 " fill-opacity="1" fill-rule="nonzero"/><path fill="#f7b60b" d="M 1681.242188 1907.285156 L 1681.242188 1810.410156 L 1584.367188 1810.410156 L 1584.367188 1681.242188 L 1681.242188 1681.242188 L 1681.242188 1584.367188 L 1745.828125 1584.367188 L 1745.828125 1778.117188 C 1745.828125 1823.023438 1752.890625 1866.542969 1766.136719 1907.285156 L 1681.242188 1907.285156 " fill-opacity="1" fill-rule="nonzero"/><path fill="#ecf5f4" d="M 1826.554688 2294.785156 C 1826.554688 2339.4375 1862.632812 2375.515625 1907.285156 2375.515625 C 1951.9375 2375.515625 1988.015625 2339.4375 1988.015625 2294.785156 C 1988.015625 2250.132812 1951.9375 2214.054688 1907.285156 2214.054688 C 1862.632812 2214.054688 1826.554688 2250.132812 1826.554688 2294.785156 " fill-opacity="1" fill-rule="nonzero"/><path fill="#d2dbda" d="M 1980.699219 2327.832031 C 1968.210938 2355.710938 1939.953125 2375.515625 1907.285156 2375.515625 C 1862.882812 2375.515625 1826.554688 2339.1875 1826.554688 2294.785156 C 1826.554688 2262.113281 1846.359375 2233.859375 1874.238281 2221.371094 C 1869.316406 2231.464844 1866.921875 2242.691406 1866.921875 2254.421875 C 1866.921875 2298.820312 1903.25 2335.148438 1947.648438 2335.148438 C 1959.378906 2335.148438 1970.605469 2332.753906 1980.699219 2327.832031 " fill-opacity="1" fill-rule="nonzero"/><path fill="#f3e306" d="M 1971.867188 1293.742188 C 1971.867188 1311.53125 1957.363281 1326.035156 1939.578125 1326.035156 C 1921.789062 1326.035156 1907.285156 1311.53125 1907.285156 1293.742188 C 1907.285156 1275.957031 1921.789062 1261.453125 1939.578125 1261.453125 C 1957.363281 1261.453125 1971.867188 1275.957031 1971.867188 1293.742188 " fill-opacity="1" fill-rule="nonzero"/><path fill="#f3e306" d="M 2030.902344 1234.710938 C 2022.703125 1234.710938 2014.378906 1231.558594 2008.070312 1225.25 C 1970.355469 1187.535156 1908.796875 1187.535156 1871.082031 1225.25 C 1858.46875 1237.863281 1838.035156 1237.863281 1825.421875 1225.25 C 1812.804688 1212.636719 1812.804688 1192.203125 1825.421875 1179.585938 C 1888.363281 1116.644531 1990.789062 1116.644531 2053.734375 1179.585938 C 2066.347656 1192.203125 2066.347656 1212.636719 2053.734375 1225.25 C 2047.425781 1231.558594 2039.226562 1234.710938 2030.902344 1234.710938 " fill-opacity="1" fill-rule="nonzero"/><g clip-path="url(#7d78b1b30b)"><path fill="#f3e306" d="M 2122.226562 1143.386719 C 2114.027344 1143.386719 2105.703125 1140.230469 2099.394531 1133.925781 C 2056.761719 1091.164062 1999.996094 1067.703125 1939.578125 1067.703125 C 1879.15625 1067.703125 1822.394531 1091.164062 1779.757812 1133.925781 C 1767.144531 1146.539062 1746.710938 1146.539062 1734.09375 1133.925781 C 1721.480469 1121.3125 1721.480469 1100.875 1734.09375 1088.261719 C 1788.964844 1033.390625 1862 1003.117188 1939.578125 1003.117188 C 2017.152344 1003.117188 2090.1875 1033.390625 2145.058594 1088.261719 C 2157.671875 1100.875 2157.671875 1121.3125 2145.058594 1133.925781 C 2138.75 1140.230469 2130.550781 1143.386719 2122.226562 1143.386719 " fill-opacity="1" fill-rule="nonzero"/></g><path fill="#d2dbda" d="M 1847.875 2052.21875 C 1815.832031 2062.941406 1781.398438 2068.742188 1745.828125 2068.742188 C 1567.84375 2068.742188 1422.910156 1923.808594 1422.910156 1745.828125 L 1422.910156 1584.367188 C 1422.910156 1566.582031 1437.414062 1552.078125 1455.203125 1552.078125 L 1519.785156 1552.078125 C 1537.570312 1552.078125 1552.078125 1566.582031 1552.078125 1584.367188 C 1552.078125 1602.15625 1537.570312 1616.660156 1519.785156 1616.660156 L 1487.492188 1616.660156 L 1487.492188 1745.828125 C 1487.492188 1888.238281 1603.414062 2004.160156 1745.828125 2004.160156 C 1767.144531 2004.160156 1787.832031 2001.511719 1807.507812 1996.71875 C 1819.492188 2016.394531 1832.988281 2034.8125 1847.875 2052.21875 " fill-opacity="1" fill-rule="nonzero"/><path fill="#f3e306" d="M 1422.910156 2036.453125 L 1422.910156 1971.867188 L 1035.410156 1971.867188 L 1035.410156 2488.535156 L 1229.160156 2488.535156 L 1229.160156 2359.367188 C 1336.125 2359.367188 1422.910156 2272.585938 1422.910156 2165.617188 L 1487.492188 2133.328125 L 1422.910156 2036.453125 " fill-opacity="1" fill-rule="nonzero"/><path fill="#f7b60b" d="M 1196.867188 2068.742188 L 1196.867188 2197.910156 C 1196.867188 2269.304688 1254.640625 2327.078125 1326.035156 2327.078125 L 1336 2327.078125 C 1305.347656 2347.765625 1268.515625 2359.367188 1229.160156 2359.367188 L 1229.160156 2488.535156 L 1035.410156 2488.535156 L 1035.410156 1971.867188 L 1422.910156 1971.867188 L 1422.910156 2004.160156 L 1261.453125 2004.160156 C 1225.878906 2004.160156 1196.867188 2033.171875 1196.867188 2068.742188 " fill-opacity="1" fill-rule="nonzero"/><path fill="#8f9697" d="M 1132.285156 1778.117188 C 1078.800781 1778.117188 1035.410156 1821.511719 1035.410156 1874.992188 L 1035.410156 2165.617188 L 1067.703125 2165.617188 C 1121.183594 2165.617188 1164.578125 2122.226562 1164.578125 2068.742188 L 1164.578125 1971.867188 L 1422.910156 1971.867188 C 1458.605469 1971.867188 1487.492188 1942.984375 1487.492188 1907.285156 L 1487.492188 1778.117188 L 1132.285156 1778.117188 " fill-opacity="1" fill-rule="nonzero"/><g clip-path="url(#d71aa36789)"><path fill="#8f9697" d="M 1455.203125 2746.867188 L 938.535156 2746.867188 L 938.535156 2585.410156 C 938.535156 2531.925781 981.925781 2488.535156 1035.410156 2488.535156 L 1261.453125 2488.535156 C 1368.417969 2488.535156 1455.203125 2575.320312 1455.203125 2682.285156 L 1455.203125 2746.867188 " fill-opacity="1" fill-rule="nonzero"/></g><path fill="#5e6574" d="M 1487.492188 1874.992188 L 1487.492188 1907.285156 C 1487.492188 1942.855469 1458.480469 1971.867188 1422.910156 1971.867188 L 1164.578125 1971.867188 L 1164.578125 2068.742188 C 1164.578125 2122.351562 1121.308594 2165.617188 1067.703125 2165.617188 L 1035.410156 2165.617188 L 1035.410156 1874.992188 C 1035.410156 1821.382812 1078.675781 1778.117188 1132.285156 1778.117188 C 1132.285156 1831.726562 1175.550781 1874.992188 1229.160156 1874.992188 L 1487.492188 1874.992188 " fill-opacity="1" fill-rule="nonzero"/><g clip-path="url(#8d66b88244)"><path fill="#5e6574" d="M 1455.203125 2682.285156 L 1455.203125 2746.867188 L 938.535156 2746.867188 L 938.535156 2585.410156 C 938.535156 2531.800781 981.800781 2488.535156 1035.410156 2488.535156 C 1035.410156 2559.929688 1093.179688 2617.703125 1164.578125 2617.703125 L 1443.847656 2617.703125 C 1451.292969 2638.011719 1455.203125 2659.707031 1455.203125 2682.285156 " fill-opacity="1" fill-rule="nonzero"/></g><path fill="#e48e1e" d="M 1229.160156 2359.367188 L 1035.410156 2488.535156 L 1035.410156 2230.203125 C 1035.410156 2301.597656 1093.179688 2359.367188 1164.578125 2359.367188 L 1229.160156 2359.367188 " fill-opacity="1" fill-rule="nonzero"/><path fill="#6dbbea" d="M 1326.035156 2068.742188 C 1326.035156 2086.527344 1311.527344 2101.035156 1293.742188 2101.035156 C 1275.957031 2101.035156 1261.453125 2086.527344 1261.453125 2068.742188 C 1261.453125 2050.957031 1275.957031 2036.453125 1293.742188 2036.453125 C 1311.527344 2036.453125 1326.035156 2050.957031 1326.035156 2068.742188 " fill-opacity="1" fill-rule="nonzero"/></svg>