<svg xmlns="http://www.w3.org/2000/svg" xmlns:xlink="http://www.w3.org/1999/xlink" width="1024" zoomAndPan="magnify" viewBox="0 0 768 767.999994" height="1024" preserveAspectRatio="xMidYMid meet" version="1.0"><defs><clipPath id="0d20ba2405"><path d="M 10.085938 10.085938 L 768 10.085938 L 768 768 L 10.085938 768 Z M 10.085938 10.085938 " clip-rule="nonzero"/></clipPath><clipPath id="42f7112955"><path d="M 10.085938 10.085938 L 768 10.085938 L 768 768 L 10.085938 768 Z M 10.085938 10.085938 " clip-rule="nonzero"/></clipPath></defs><path fill="#18442a" d="M 569.246094 516.703125 L 486.261719 433.707031 C 500.363281 411.265625 508.546875 384.726562 508.546875 356.25 C 508.546875 275.695312 443.242188 210.398438 362.6875 210.398438 C 282.132812 210.398438 216.835938 275.695312 216.835938 356.25 C 216.835938 436.808594 282.132812 502.101562 362.6875 502.101562 C 393.675781 502.101562 422.375 492.410156 445.996094 475.949219 L 527.996094 557.957031 C 533.691406 563.648438 541.160156 566.480469 548.625 566.480469 C 556.09375 566.480469 563.554688 563.648438 569.257812 557.957031 C 580.644531 546.566406 580.644531 528.101562 569.246094 516.703125 Z M 362.6875 454.851562 C 308.242188 454.851562 264.097656 410.710938 264.097656 356.261719 C 264.097656 301.8125 308.242188 257.671875 362.6875 257.671875 C 417.136719 257.671875 461.277344 301.8125 461.277344 356.261719 C 461.277344 410.710938 417.136719 454.851562 362.6875 454.851562 Z M 362.6875 454.851562 " fill-opacity="1" fill-rule="nonzero"/><g clip-path="url(#0d20ba2405)"><path fill="#18442a" d="M 389.125 767.769531 C 180.230469 767.769531 10.28125 597.820312 10.28125 388.914062 C 10.28125 180.011719 180.230469 10.0625 389.125 10.0625 C 598.03125 10.0625 767.988281 180.011719 767.988281 388.914062 C 767.988281 597.820312 598.03125 767.769531 389.125 767.769531 Z M 389.125 47.425781 C 200.832031 47.425781 47.644531 200.621094 47.644531 388.914062 C 47.644531 577.210938 200.832031 730.40625 389.125 730.40625 C 577.421875 730.40625 730.621094 577.210938 730.621094 388.914062 C 730.621094 200.621094 577.421875 47.425781 389.125 47.425781 Z M 389.125 47.425781 " fill-opacity="1" fill-rule="nonzero"/></g><path fill="#18442a" d="M 569.246094 516.703125 L 486.261719 433.707031 C 500.363281 411.265625 508.546875 384.726562 508.546875 356.25 C 508.546875 275.695312 443.242188 210.398438 362.6875 210.398438 C 282.132812 210.398438 216.835938 275.695312 216.835938 356.25 C 216.835938 436.808594 282.132812 502.101562 362.6875 502.101562 C 393.675781 502.101562 422.375 492.410156 445.996094 475.949219 L 527.996094 557.957031 C 533.691406 563.648438 541.160156 566.480469 548.625 566.480469 C 556.09375 566.480469 563.554688 563.648438 569.257812 557.957031 C 580.644531 546.566406 580.644531 528.101562 569.246094 516.703125 Z M 362.6875 454.851562 C 308.242188 454.851562 264.097656 410.710938 264.097656 356.261719 C 264.097656 301.8125 308.242188 257.671875 362.6875 257.671875 C 417.136719 257.671875 461.277344 301.8125 461.277344 356.261719 C 461.277344 410.710938 417.136719 454.851562 362.6875 454.851562 Z M 362.6875 454.851562 " fill-opacity="1" fill-rule="nonzero"/><g clip-path="url(#42f7112955)"><path fill="#18442a" d="M 389.125 767.769531 C 180.230469 767.769531 10.28125 597.820312 10.28125 388.914062 C 10.28125 180.011719 180.230469 10.0625 389.125 10.0625 C 598.03125 10.0625 767.988281 180.011719 767.988281 388.914062 C 767.988281 597.820312 598.03125 767.769531 389.125 767.769531 Z M 389.125 47.425781 C 200.832031 47.425781 47.644531 200.621094 47.644531 388.914062 C 47.644531 577.210938 200.832031 730.40625 389.125 730.40625 C 577.421875 730.40625 730.621094 577.210938 730.621094 388.914062 C 730.621094 200.621094 577.421875 47.425781 389.125 47.425781 Z M 389.125 47.425781 " fill-opacity="1" fill-rule="nonzero"/></g></svg>